<svg width="13" height="17" viewBox="0 0 13 17" fill="none" xmlns="http://www.w3.org/2000/svg">
<path d="M6.5 3C7.32843 3 8 2.32843 8 1.5C8 0.671573 7.32843 0 6.5 0C5.67157 0 5 0.671573 5 1.5C5 2.32843 5.67157 3 6.5 3Z" fill="#9E9FA1"/>
<path d="M6.5 10C7.32843 10 8 9.32843 8 8.5C8 7.67157 7.32843 7 6.5 7C5.67157 7 5 7.67157 5 8.5C5 9.32843 5.67157 10 6.5 10Z" fill="#9E9FA1"/>
<path d="M6.5 17C7.32843 17 8 16.3284 8 15.5C8 14.6716 7.32843 14 6.5 14C5.67157 14 5 14.6716 5 15.5C5 16.3284 5.67157 17 6.5 17Z" fill="#9E9FA1"/>
</svg>
