<svg width="16" height="16" viewBox="0 0 16 16" fill="none" xmlns="http://www.w3.org/2000/svg">
<g id="_&#235;&#160;&#136;&#236;&#157;&#180;&#236;&#150;&#180;_1" clip-path="url(#clip0_1925_8860)">
<path id="Vector" d="M13.3333 1.94491C14.2533 1.94491 15 2.7589 15 3.76186V9.5761C15 10.5791 14.2533 11.3931 13.3333 11.3931H10.58C10.26 11.3931 9.96 11.5602 9.77333 11.8364L8 13.8007L6.22667 11.8364C6.04 11.5529 5.74 11.3931 5.42 11.3931H2.66667C1.74667 11.3931 1 10.5791 1 9.5761V3.76186C1 2.7589 1.74667 1.94491 2.66667 1.94491H13.3333ZM13.3333 0.854736H2.66667C1.19333 0.854736 0 2.15567 0 3.76186V9.5761C0 11.1823 1.19333 12.4832 2.66667 12.4832H5.42L7.46 14.8472C7.59333 15.0435 7.79333 15.1452 8 15.1452C8.20667 15.1452 8.40667 15.0435 8.54 14.8472L10.58 12.4832H13.3333C14.8067 12.4832 16 11.1823 16 9.5761V3.76186C16 2.15567 14.8067 0.854736 13.3333 0.854736Z" fill="#727375"/>
<path id="Vector_2" d="M4.49998 7.00008C4.86817 7.00008 5.16665 6.7016 5.16665 6.33341C5.16665 5.96522 4.86817 5.66675 4.49998 5.66675C4.13179 5.66675 3.83331 5.96522 3.83331 6.33341C3.83331 6.7016 4.13179 7.00008 4.49998 7.00008Z" fill="#727375"/>
<path id="Vector_3" d="M7.99998 7.00008C8.36817 7.00008 8.66665 6.7016 8.66665 6.33341C8.66665 5.96522 8.36817 5.66675 7.99998 5.66675C7.63179 5.66675 7.33331 5.96522 7.33331 6.33341C7.33331 6.7016 7.63179 7.00008 7.99998 7.00008Z" fill="#727375"/>
<path id="Vector_4" d="M11.5 7.00008C11.8682 7.00008 12.1666 6.7016 12.1666 6.33341C12.1666 5.96522 11.8682 5.66675 11.5 5.66675C11.1318 5.66675 10.8333 5.96522 10.8333 6.33341C10.8333 6.7016 11.1318 7.00008 11.5 7.00008Z" fill="#727375"/>
</g>
<defs>
<clipPath id="clip0_1925_8860">
<rect width="16" height="16" fill="white"/>
</clipPath>
</defs>
</svg>
