<svg width="40" height="40" viewBox="0 0 40 40" fill="none" xmlns="http://www.w3.org/2000/svg">
<path fill-rule="evenodd" clip-rule="evenodd" d="M20.7786 8.77867C20.7786 8.34862 20.43 8 19.9999 8C19.5699 8 19.2213 8.34862 19.2213 8.77867V9.28285C15.0533 9.67505 11.7919 13.1839 11.7919 17.4544V27.2735H11.1233C10.7258 27.2735 10.4036 27.5957 10.4036 27.9932C10.4036 28.3907 10.7258 28.713 11.1233 28.713H11.7919V28.7131H12.9919H27.008H28.208V28.713H28.8765C29.274 28.713 29.5963 28.3907 29.5963 27.9932C29.5963 27.5957 29.274 27.2735 28.8765 27.2735H28.208V17.4545C28.208 13.1839 24.9466 9.67509 20.7786 9.28286V8.77867ZM19.7508 10.4507C19.829 10.4772 19.9128 10.4915 19.9999 10.4915C20.0871 10.4915 20.1709 10.4772 20.2491 10.4507C24.0041 10.582 27.008 13.6674 27.008 17.4545V27.2735H12.9919V17.4544C12.9919 13.6674 15.9957 10.5819 19.7508 10.4507ZM17.121 30.5605C16.7235 30.5605 16.4013 30.8828 16.4013 31.2803C16.4013 31.6778 16.7235 32 17.121 32H22.8788C23.2763 32 23.5985 31.6778 23.5985 31.2803C23.5985 30.8828 23.2763 30.5605 22.8788 30.5605H17.121ZM14.9209 25.4279C14.9209 25.0148 15.2557 24.68 15.6688 24.68H17.9311C18.3441 24.68 18.679 25.0148 18.679 25.4279C18.679 25.841 18.3441 26.1758 17.9311 26.1758H15.6688C15.2557 26.1758 14.9209 25.841 14.9209 25.4279Z" fill="#191919"/>
</svg>
