<svg width="20" height="20" viewBox="0 0 20 20" fill="none" xmlns="http://www.w3.org/2000/svg">
<path fill-rule="evenodd" clip-rule="evenodd" d="M9.67135 3.07383C11.1613 3.07383 12.376 4.28859 12.376 5.77852C12.376 7.26846 11.1613 8.48322 9.67135 8.48322C8.18141 8.48322 6.96665 7.26846 6.96665 5.77852C6.96665 4.28859 8.18141 3.07383 9.67135 3.07383ZM9.67135 2C7.5841 2 5.89282 3.69128 5.89282 5.77852C5.89282 7.86577 7.5841 9.55705 9.67135 9.55705C11.7586 9.55705 13.4499 7.86577 13.4499 5.77852C13.4499 3.69128 11.7586 2 9.67135 2ZM14.2771 18H4.72008C3.94827 18 3.23686 17.6107 2.81404 16.9664C2.39794 16.3289 2.33082 15.5436 2.63283 14.8523C3.81404 12.1611 6.63955 10.4228 9.83418 10.4228C12.8073 10.4228 15.5523 12 16.8342 14.4362C16.9751 14.698 16.8677 15.0201 16.606 15.1611C16.3442 15.302 16.0154 15.1946 15.8812 14.9329C14.7872 12.8456 12.4114 11.4966 9.83418 11.4966C7.06908 11.4966 4.62612 12.9799 3.61941 15.2819C3.45834 15.6376 3.49861 16.0403 3.71337 16.3758C3.93485 16.7181 4.3174 16.9262 4.72008 16.9262H14.2771C14.5724 16.9262 14.814 17.1678 14.814 17.4631C14.814 17.7584 14.5724 18 14.2771 18ZM16.3539 17.4052C16.3539 17.0748 16.6236 16.8052 16.9539 16.8052C17.2843 16.8052 17.5539 17.0748 17.5539 17.4052C17.5539 17.7355 17.2843 18.0052 16.9539 18.0052C16.6236 18.0052 16.3539 17.7355 16.3539 17.4052Z" fill="#BEBEBE"/>
</svg>
