<svg width="16" height="17" viewBox="0 0 16 17" fill="none" xmlns="http://www.w3.org/2000/svg">
<path id="Union" fill-rule="evenodd" clip-rule="evenodd" d="M7.67135 1.57383C9.16128 1.57383 10.376 2.78859 10.376 4.27852C10.376 5.76846 9.16128 6.98322 7.67135 6.98322C6.18141 6.98322 4.96665 5.76846 4.96665 4.27852C4.96665 2.78859 6.18141 1.57383 7.67135 1.57383ZM7.67135 0.5C5.5841 0.5 3.89282 2.19128 3.89282 4.27852C3.89282 6.36577 5.5841 8.05705 7.67135 8.05705C9.75859 8.05705 11.4499 6.36577 11.4499 4.27852C11.4499 2.19128 9.75859 0.5 7.67135 0.5ZM12.2771 16.5H2.72008C1.94827 16.5 1.23686 16.1107 0.814042 15.4664C0.397935 14.8289 0.330821 14.0436 0.632834 13.3523C1.81404 10.6611 4.63955 8.92282 7.83418 8.92282C10.8073 8.92282 13.5523 10.5 14.8342 12.9362C14.9751 13.198 14.8677 13.5201 14.606 13.6611C14.3442 13.802 14.0154 13.6946 13.8812 13.4329C12.7872 11.3456 10.4114 9.99664 7.83418 9.99664C5.06908 9.99664 2.62612 11.4799 1.61941 13.7819C1.45834 14.1376 1.49861 14.5403 1.71337 14.8758C1.93485 15.2181 2.3174 15.4262 2.72008 15.4262H12.2771C12.5724 15.4262 12.814 15.6678 12.814 15.9631C12.814 16.2584 12.5724 16.5 12.2771 16.5ZM14.3539 15.9052C14.3539 15.5748 14.6236 15.3052 14.9539 15.3052C15.2843 15.3052 15.5539 15.5748 15.5539 15.9052C15.5539 16.2355 15.2843 16.5052 14.9539 16.5052C14.6236 16.5052 14.3539 16.2355 14.3539 15.9052Z" fill="#BEBEBE"/>
</svg>
