<svg width="28" height="24" viewBox="0 0 28 24" fill="none" xmlns="http://www.w3.org/2000/svg">
<g id="_&#235;&#160;&#136;&#236;&#157;&#180;&#236;&#150;&#180;_1" clip-path="url(#clip0_1199_2033)">
<g id="Group 974">
<path id="Vector" d="M14.0002 9.76917C15.9135 9.76917 17.4652 11.3208 17.4652 13.2342C17.4652 15.1475 15.9135 16.6992 14.0002 16.6992C12.0868 16.6992 10.5352 15.1475 10.5352 13.2342C10.5352 11.3208 12.0868 9.76917 14.0002 9.76917ZM14.0002 8.01917C11.1185 8.01917 8.78516 10.3525 8.78516 13.2342C8.78516 16.1158 11.1185 18.4492 14.0002 18.4492C16.8818 18.4492 19.2152 16.1158 19.2152 13.2342C19.2152 10.3525 16.8818 8.01917 14.0002 8.01917Z" fill="black"/>
<path id="Vector_2" d="M23.3333 4.61243C24.9433 4.61243 26.25 5.91909 26.25 7.52909V18.4258C26.25 20.0358 24.9433 21.3424 23.3333 21.3424H4.66667C3.05667 21.3424 1.75 20.0358 1.75 18.4258V7.52909C1.75 5.91909 3.05667 4.61243 4.66667 4.61243H23.3333ZM23.3333 2.86243H4.66667C2.08833 2.86243 0 4.95076 0 7.52909V18.4258C0 21.0041 2.08833 23.0924 4.66667 23.0924H23.3333C25.9117 23.0924 28 21.0041 28 18.4258V7.52909C28 4.95076 25.9117 2.86243 23.3333 2.86243Z" fill="black"/>
<path id="Vector_3" d="M21.0117 8.27585C21.5272 8.27585 21.945 7.85798 21.945 7.34251C21.945 6.82705 21.5272 6.40918 21.0117 6.40918C20.4962 6.40918 20.0784 6.82705 20.0784 7.34251C20.0784 7.85798 20.4962 8.27585 21.0117 8.27585Z" fill="#E70050"/>
<path id="Vector_4" d="M10.1382 0.377441H4.84155C4.36322 0.377441 3.96655 0.774108 3.96655 1.25244C3.96655 1.73077 4.36322 2.12744 4.84155 2.12744H10.1382C10.6166 2.12744 11.0132 1.73077 11.0132 1.25244C11.0132 0.774108 10.6166 0.377441 10.1382 0.377441Z" fill="black"/>
</g>
</g>
<defs>
<clipPath id="clip0_1199_2033">
<rect width="28" height="24" fill="white"/>
</clipPath>
</defs>
</svg>
