<svg width="20" height="20" viewBox="0 0 20 20" fill="none" xmlns="http://www.w3.org/2000/svg">
<path fill-rule="evenodd" clip-rule="evenodd" d="M17.875 5.23218C17.875 4.10386 17.035 3.18811 16 3.18811H4C2.965 3.18811 2.125 4.10386 2.125 5.23218V11.7732C2.125 12.9015 2.965 13.8173 4 13.8173H7.0975C7.4575 13.8173 7.795 13.9972 8.005 14.316L10 16.5258L11.995 14.316C12.205 14.0053 12.5425 13.8173 12.9025 13.8173H16C17.035 13.8173 17.875 12.9015 17.875 11.7732V5.23218ZM4 1.96167H16C17.6575 1.96167 19 3.42522 19 5.23218V11.7732C19 13.5802 17.6575 15.0437 16 15.0437H12.9025L10.6075 17.7032C10.4575 17.924 10.2325 18.0385 10 18.0385C9.7675 18.0385 9.5425 17.924 9.3925 17.7032L7.0975 15.0437H4C2.3425 15.0437 1 13.5802 1 11.7732V5.23218C1 3.42522 2.3425 1.96167 4 1.96167ZM6.8125 8.12573C6.8125 8.53995 6.47671 8.87573 6.0625 8.87573C5.64829 8.87573 5.3125 8.53995 5.3125 8.12573C5.3125 7.71152 5.64829 7.37573 6.0625 7.37573C6.47671 7.37573 6.8125 7.71152 6.8125 8.12573ZM10 8.87573C10.4142 8.87573 10.75 8.53995 10.75 8.12573C10.75 7.71152 10.4142 7.37573 10 7.37573C9.58579 7.37573 9.25 7.71152 9.25 8.12573C9.25 8.53995 9.58579 8.87573 10 8.87573ZM14.6875 8.12573C14.6875 8.53995 14.3517 8.87573 13.9375 8.87573C13.5233 8.87573 13.1875 8.53995 13.1875 8.12573C13.1875 7.71152 13.5233 7.37573 13.9375 7.37573C14.3517 7.37573 14.6875 7.71152 14.6875 8.12573Z" fill="#BEBEBE"/>
</svg>
