<svg width="16" height="16" viewBox="0 0 16 16" fill="none" xmlns="http://www.w3.org/2000/svg">
<g id="_&#235;&#160;&#136;&#236;&#157;&#180;&#236;&#150;&#180;_1" clip-path="url(#clip0_1586_7844)">
<path id="Vector" d="M16 6.6933C16 5.42664 15 4.3933 13.7467 4.32664V2.07997C13.7467 1.6533 13.5267 1.2733 13.16 1.05997C12.7934 0.846637 12.3467 0.839971 11.9734 1.05997C7.28669 3.71997 5.13336 3.50664 5.12002 3.50664H3.31336C1.62002 3.4933 0.166691 4.75997 0.0133578 6.37997C-0.139976 8.0133 0.946691 9.4933 2.55336 9.82664C2.64002 9.84664 2.69336 9.9133 2.70002 9.98664L2.72669 13.2066C2.72669 13.74 2.95336 14.2533 3.35336 14.6133C3.70002 14.9266 4.16002 15.1 4.62669 15.1C4.69336 15.1 4.75336 15.1 4.82002 15.0933C5.77336 15 6.52002 14.1333 6.52002 13.1266V10.1533C6.52002 10.08 6.56002 10.0333 6.58669 10.02C6.61336 9.99997 6.66002 9.97997 6.72002 9.98664C8.19336 10.3333 9.96669 11.0866 11.9867 12.2333C12.36 12.4466 12.8 12.4466 13.1734 12.2333C13.54 12.02 13.76 11.64 13.76 11.2133V9.05997C15.0134 8.9933 16.0134 7.95997 16.0134 6.6933H16ZM12.7334 11.2133C12.7334 11.2933 12.6867 11.3333 12.6534 11.3533C12.62 11.3733 12.5534 11.4 12.48 11.3533C10.3734 10.1533 8.51336 9.35997 6.94669 8.99997C6.59336 8.91997 6.24002 8.99997 5.95336 9.22664C5.66669 9.4533 5.50669 9.7933 5.50669 10.1533V13.1266C5.50669 13.62 5.16002 14.04 4.71336 14.0866C4.46002 14.1133 4.21336 14.0333 4.02669 13.8666C3.84002 13.7 3.73336 13.46 3.73336 13.2066L3.70669 9.97997C3.70669 9.41997 3.31336 8.9533 2.75336 8.83997C1.66002 8.6133 0.913358 7.59997 1.02002 6.47997C1.12669 5.3733 2.13336 4.5133 3.31336 4.5133H5.02669C5.38002 4.54664 7.74002 4.6333 12.48 1.93997C12.56 1.8933 12.62 1.91997 12.6534 1.93997C12.6934 1.95997 12.7334 2.00664 12.7334 2.08664V11.22V11.2133ZM13.7467 8.04664V5.3333C14.44 5.39997 14.9934 5.97997 14.9934 6.6933C14.9934 7.40664 14.4467 7.98664 13.7467 8.0533V8.04664Z" fill="#E70050"/>
<path id="Vector_2" d="M4.74666 8.5065C5.02648 8.5065 5.25332 8.27965 5.25332 7.99983C5.25332 7.72001 5.02648 7.49316 4.74666 7.49316C4.46683 7.49316 4.23999 7.72001 4.23999 7.99983C4.23999 8.27965 4.46683 8.5065 4.74666 8.5065Z" fill="#E70050"/>
</g>
<defs>
<clipPath id="clip0_1586_7844">
<rect width="16" height="14.2" fill="white" transform="translate(0 0.899902)"/>
</clipPath>
</defs>
</svg>
