<svg width="20" height="20" viewBox="0 0 20 20" fill="none" xmlns="http://www.w3.org/2000/svg">
<path d="M20 10C20 15.5228 15.5228 20 10 20C4.47715 20 0 15.5228 0 10C0 4.47715 4.47715 0 10 0C15.5228 0 20 4.47715 20 10Z" fill="#9E9FA1"/>
<rect width="8" height="8.00002" transform="translate(6 6)" fill="#9E9FA1"/>
<path fill-rule="evenodd" clip-rule="evenodd" d="M6.36369 13.3942C6.1649 13.1954 6.1649 12.8658 6.36369 12.667L9.15159 9.87906L6.36374 7.09121C6.16495 6.89242 6.16495 6.56272 6.36374 6.36393C6.56253 6.16515 6.89223 6.16515 7.09101 6.36393L9.87887 9.15179L12.6667 6.36393C12.8655 6.16515 13.1952 6.16515 13.394 6.36393C13.5928 6.56272 13.5928 6.89242 13.394 7.09121L10.6061 9.87906L11.9395 11.2124C12.1383 11.4112 12.1383 11.7409 11.9395 11.9397C11.7407 12.1385 11.411 12.1385 11.2122 11.9397L9.87887 10.6063L7.09096 13.3942C6.89218 13.593 6.56248 13.593 6.36369 13.3942ZM13.5152 13.5154C13.2474 13.7832 12.8133 13.7832 12.5455 13.5154C12.2777 13.2476 12.2777 12.8135 12.5455 12.5457C12.8133 12.2779 13.2474 12.2779 13.5152 12.5457C13.783 12.8135 13.783 13.2476 13.5152 13.5154Z" fill="white"/>
</svg>
