<svg width="20" height="21" viewBox="0 0 20 21" fill="none" xmlns="http://www.w3.org/2000/svg">
<g clip-path="url(#clip0_7042_1839)">
<path d="M13.7533 3.56667C14.7467 3.56667 15.5533 4.37333 15.5533 5.36667V15.6333C15.5533 16.6267 14.7467 17.4333 13.7533 17.4333H6.24667C5.25334 17.4333 4.44667 16.6267 4.44667 15.6333V5.36667C4.44667 4.37333 5.25334 3.56667 6.24667 3.56667H13.7533ZM13.7533 2.5H6.24667C4.66667 2.5 3.38 3.78667 3.38 5.36667V15.6333C3.38 17.22 4.66667 18.5 6.24667 18.5H13.7533C15.34 18.5 16.62 17.2133 16.62 15.6333V5.36667C16.62 3.78 15.3333 2.5 13.7533 2.5Z" fill="#E70050"/>
<path d="M12.0467 11.5C11.76 11.5 11.5333 11.7267 11.5333 12.0133C11.5333 12.3 11.76 12.5267 12.0467 12.5267C12.3333 12.5267 12.56 12.3 12.56 12.0133C12.56 11.7267 12.3333 11.5 12.0467 11.5Z" fill="#E70050"/>
<path d="M6.39337 6.4668H11.38" stroke="#E70050" stroke-miterlimit="10" stroke-linecap="round"/>
<path d="M6.39337 8.67969H11.38" stroke="#E70050" stroke-miterlimit="10" stroke-linecap="round"/>
<path d="M6.39337 12.0664H9.82671" stroke="#E70050" stroke-miterlimit="10" stroke-linecap="round"/>
</g>
<defs>
<clipPath id="clip0_7042_1839">
<rect width="13.24" height="16" fill="white" transform="translate(3.38 2.5)"/>
</clipPath>
</defs>
</svg>
