<svg width="20" height="20" viewBox="0 0 20 20" fill="none" xmlns="http://www.w3.org/2000/svg">
<g clip-path="url(#clip0_7080_25215)">
<path d="M13.7533 3.06667C14.7467 3.06667 15.5533 3.87333 15.5533 4.86667V15.1333C15.5533 16.1267 14.7467 16.9333 13.7533 16.9333H6.24667C5.25334 16.9333 4.44667 16.1267 4.44667 15.1333V4.86667C4.44667 3.87333 5.25334 3.06667 6.24667 3.06667H13.7533ZM13.7533 2H6.24667C4.66667 2 3.38 3.28667 3.38 4.86667V15.1333C3.38 16.72 4.66667 18 6.24667 18H13.7533C15.34 18 16.62 16.7133 16.62 15.1333V4.86667C16.62 3.28 15.3333 2 13.7533 2Z" fill="#E70050"/>
<path d="M12.0467 11C11.76 11 11.5333 11.2267 11.5333 11.5133C11.5333 11.8 11.76 12.0267 12.0467 12.0267C12.3333 12.0267 12.56 11.8 12.56 11.5133C12.56 11.2267 12.3333 11 12.0467 11Z" fill="#E70050"/>
<path d="M6.39337 5.9668H11.38" stroke="#E70050" stroke-miterlimit="10" stroke-linecap="round"/>
<path d="M6.39337 8.17969H11.38" stroke="#E70050" stroke-miterlimit="10" stroke-linecap="round"/>
<path d="M6.39337 11.5664H9.82671" stroke="#E70050" stroke-miterlimit="10" stroke-linecap="round"/>
</g>
<defs>
<clipPath id="clip0_7080_25215">
<rect width="13.24" height="16" fill="white" transform="translate(3.38 2)"/>
</clipPath>
</defs>
</svg>
