<svg width="24" height="24" viewBox="0 0 24 24" fill="none" xmlns="http://www.w3.org/2000/svg">
<path d="M24 19C24 18.1716 23.3284 17.5 22.5 17.5C21.6716 17.5 21 18.1716 21 19C21 19.8284 21.6716 20.5 22.5 20.5C23.3284 20.5 24 19.8284 24 19Z" fill="#9E9FA1"/>
<path d="M24 12C24 11.1716 23.3284 10.5 22.5 10.5C21.6716 10.5 21 11.1716 21 12C21 12.8284 21.6716 13.5 22.5 13.5C23.3284 13.5 24 12.8284 24 12Z" fill="#9E9FA1"/>
<path d="M24 5C24 4.17157 23.3284 3.5 22.5 3.5C21.6716 3.5 21 4.17157 21 5C21 5.82843 21.6716 6.5 22.5 6.5C23.3284 6.5 24 5.82843 24 5Z" fill="#9E9FA1"/>
</svg>
