<svg width="45" height="45" viewBox="0 0 45 45" fill="none" xmlns="http://www.w3.org/2000/svg">
<g id="_&#235;&#160;&#136;&#236;&#157;&#180;&#236;&#150;&#180;_2" clip-path="url(#clip0_1586_7852)">
<path id="Vector" d="M22.5 45C34.9264 45 45 34.9264 45 22.5C45 10.0736 34.9264 0 22.5 0C10.0736 0 0 10.0736 0 22.5C0 34.9264 10.0736 45 22.5 45Z" fill="#E2E2E2"/>
<path id="Vector_2" d="M22.5 8.2124C24.9375 8.2124 26.925 10.1999 26.925 12.6374C26.925 15.0749 24.9375 17.0624 22.5 17.0624C20.0625 17.0624 18.075 15.0749 18.075 12.6374C18.075 10.1999 20.0625 8.2124 22.5 8.2124ZM22.5 5.3999C18.5063 5.3999 15.2625 8.64365 15.2625 12.6374C15.2625 16.6312 18.5063 19.8749 22.5 19.8749C26.4938 19.8749 29.7375 16.6312 29.7375 12.6374C29.7375 8.64365 26.4938 5.3999 22.5 5.3999Z" fill="black"/>
<path id="Vector_3" d="M36.6937 32.9437C36.2437 32.9437 35.7937 32.7187 35.5125 32.3062C32.6062 27.9187 27.75 25.3125 22.5 25.3125C17.25 25.3125 12.3937 27.9375 9.48749 32.3062C9.05624 32.9625 8.19374 33.1312 7.53749 32.7C6.88124 32.2687 6.71249 31.4062 7.14374 30.75C10.575 25.575 16.3125 22.4812 22.5 22.4812C28.6875 22.4812 34.4437 25.575 37.8562 30.75C38.2875 31.4062 38.1 32.2687 37.4625 32.7C37.2187 32.85 36.9562 32.925 36.6937 32.925V32.9437Z" fill="black"/>
<path id="Vector_4" d="M29.175 31.7437C28.3688 31.7437 27.7125 32.3999 27.7125 33.2062C27.7125 34.0124 28.3688 34.6687 29.175 34.6687C29.9813 34.6687 30.6375 34.0124 30.6375 33.2062C30.6375 32.3999 29.9813 31.7437 29.175 31.7437Z" fill="#E70050"/>
</g>
<defs>
<clipPath id="clip0_1586_7852">
<rect width="45" height="45" fill="white"/>
</clipPath>
</defs>
</svg>
