<svg width="20" height="20" viewBox="0 0 20 20" fill="none" xmlns="http://www.w3.org/2000/svg">
<circle cx="10" cy="10" r="10" fill="#9E9FA1"/>
<rect width="9.72272" height="9.72274" transform="translate(5 5)" fill="#9E9FA1"/>
<path d="M5.44193 13.9861C5.20033 13.7446 5.20033 13.3439 5.44193 13.1023L13.1022 5.44194C13.3438 5.20035 13.7445 5.20035 13.9861 5.44194C14.2277 5.68354 14.2277 6.08423 13.9861 6.32583L6.32581 13.9861C6.08421 14.2277 5.68352 14.2277 5.44193 13.9861Z" fill="white"/>
<path d="M11.3345 12.2184L5.44197 6.32583C5.20037 6.08423 5.20037 5.68354 5.44197 5.44194C5.68356 5.20035 6.08426 5.20035 6.32585 5.44194L12.2184 11.3345C12.46 11.5761 12.46 11.9768 12.2184 12.2184C11.9768 12.46 11.5761 12.46 11.3345 12.2184Z" fill="white"/>
<path d="M12.9549 14.1335C13.2804 14.4589 13.808 14.4589 14.1334 14.1335C14.4589 13.8081 14.4589 13.2804 14.1334 12.955C13.808 12.6295 13.2804 12.6295 12.9549 12.955C12.6295 13.2804 12.6295 13.8081 12.9549 14.1335Z" fill="white"/>
</svg>
