<svg width="20" height="20" viewBox="0 0 20 20" fill="none" xmlns="http://www.w3.org/2000/svg">
<circle cx="10" cy="10" r="10" fill="#9E9FA1"/>
<rect width="8" height="8.00002" transform="translate(5.99994 6)" fill="#9E9FA1"/>
<path d="M6.36355 13.3939C6.16476 13.1952 6.16476 12.8655 6.36355 12.6667L12.6666 6.36364C12.8654 6.16485 13.1951 6.16485 13.3938 6.36364C13.5926 6.56242 13.5926 6.89212 13.3938 7.09091L7.09082 13.3939C6.89203 13.5927 6.56233 13.5927 6.36355 13.3939Z" fill="white"/>
<path d="M11.2121 11.9394L6.3636 7.09091C6.16481 6.89212 6.16481 6.56242 6.3636 6.36364C6.56239 6.16485 6.89208 6.16485 7.09087 6.36364L11.9394 11.2121C12.1381 11.4109 12.1381 11.7406 11.9394 11.9394C11.7406 12.1382 11.4109 12.1382 11.2121 11.9394Z" fill="white"/>
<path d="M12.5454 13.5151C12.8131 13.7829 13.2473 13.7829 13.5151 13.5151C13.7828 13.2473 13.7828 12.8132 13.5151 12.5454C13.2473 12.2776 12.8131 12.2776 12.5454 12.5454C12.2776 12.8132 12.2776 13.2473 12.5454 13.5151Z" fill="white"/>
</svg>
