<svg width="40" height="40" viewBox="0 0 40 40" fill="none" xmlns="http://www.w3.org/2000/svg">
<path fill-rule="evenodd" clip-rule="evenodd" d="M20.7786 8.77867C20.7786 8.34862 20.43 8 19.9999 8C19.5699 8 19.2212 8.34862 19.2212 8.77867V9.28285C15.0533 9.67507 11.7919 13.1839 11.7919 17.4544V27.2735H11.1233C10.7258 27.2735 10.4036 27.5957 10.4036 27.9932C10.4036 28.3907 10.7258 28.713 11.1233 28.713H11.7919V28.7131H13.1919H26.808H28.208V28.713H28.8765C29.274 28.713 29.5963 28.3907 29.5963 27.9932C29.5963 27.5957 29.274 27.2735 28.8765 27.2735H28.208V17.4545C28.208 13.1839 24.9466 9.67507 20.7786 9.28285V8.77867ZM26.808 17.4545V27.2735H13.1919V17.4544C13.1919 13.6945 16.2399 10.6464 19.9999 10.6464C23.7599 10.6464 26.808 13.6945 26.808 17.4545ZM17.121 30.5605C16.7235 30.5605 16.4013 30.8828 16.4013 31.2803C16.4013 31.6778 16.7235 32 17.121 32H22.8788C23.2763 32 23.5985 31.6778 23.5985 31.2803C23.5985 30.8828 23.2763 30.5605 22.8788 30.5605H17.121ZM14.9209 25.4279C14.9209 25.0148 15.2558 24.68 15.6688 24.68H17.9311C18.3442 24.68 18.679 25.0148 18.679 25.4279C18.679 25.841 18.3442 26.1758 17.9311 26.1758H15.6688C15.2558 26.1758 14.9209 25.841 14.9209 25.4279Z" fill="#191919"/>
<path d="M31.1509 10C32.2554 10 33.1509 9.10457 33.1509 8C33.1509 6.89543 32.2554 6 31.1509 6C30.0463 6 29.1509 6.89543 29.1509 8C29.1509 9.10457 30.0463 10 31.1509 10Z" fill="#E70050"/>
</svg>
