<svg width="12" height="12" viewBox="0 0 12 12" fill="none" xmlns="http://www.w3.org/2000/svg">
<g id="_&#235;&#160;&#136;&#236;&#157;&#180;&#236;&#150;&#180;_1" clip-path="url(#clip0_2127_3284)">
<path id="Vector" d="M5.99745 10.9261C5.69477 10.9261 5.3921 10.8581 5.11871 10.7172C4.43525 10.3722 3.81526 9.96897 3.26849 9.52684C1.06189 7.7292 0.588354 5.61576 0.490717 4.78981C0.480953 4.73151 0.476071 4.66835 0.471189 4.60519C0.461426 4.4643 0.461426 4.38656 0.461426 4.38656C0.461426 2.70552 1.76976 1.28198 3.32219 1.28198C4.6647 1.28198 5.88516 1.92816 6.50028 2.97274C6.5491 3.06019 6.52469 3.17194 6.43681 3.22052C6.34894 3.26911 6.23666 3.24481 6.18784 3.15736C5.63619 2.22453 4.54265 1.64637 3.32707 1.64637C1.99433 1.64637 0.827565 2.92901 0.827565 4.38656C0.827565 4.39142 0.827565 4.45944 0.837328 4.57604C0.837328 4.63434 0.847092 4.68779 0.851974 4.74609C0.944729 5.53316 1.39386 7.53486 3.49794 9.24991C4.0203 9.67746 4.62076 10.0613 5.27982 10.3965C5.72895 10.6249 6.26107 10.6249 6.7102 10.3965L6.83224 10.3334C6.925 10.2848 7.0324 10.3188 7.08122 10.4111C7.13004 10.4985 7.09586 10.6103 7.00311 10.6589L6.87618 10.7269C6.6028 10.8678 6.30012 10.9358 5.99745 10.9358V10.9261Z" fill="#727375" stroke="#727375" stroke-width="0.46"/>
<path id="Vector_2" d="M8.13081 10.0709C8.2764 10.0709 8.39443 9.9534 8.39443 9.8085C8.39443 9.6636 8.2764 9.54614 8.13081 9.54614C7.98521 9.54614 7.86719 9.6636 7.86719 9.8085C7.86719 9.9534 7.98521 10.0709 8.13081 10.0709Z" fill="#E70050" stroke="#9E9FA1" stroke-width="0.46"/>
<path id="Vector_3" d="M9.18053 9.06527C9.13171 9.06527 9.08777 9.04583 9.04872 9.01182C8.97549 8.93894 8.98037 8.82234 9.04872 8.75432C10.6939 7.15588 11.06 5.41654 11.143 4.74606C11.1528 4.68776 11.1577 4.63432 11.1626 4.57602C11.1723 4.45456 11.1723 4.39139 11.1723 4.38654C11.1723 2.92413 10.0056 1.64149 8.6777 1.64149C7.46211 1.64149 6.3637 2.21965 5.81693 3.15248C5.76323 3.23993 5.65583 3.26908 5.56796 3.21564C5.48008 3.16705 5.45079 3.05531 5.50449 2.96786C6.1196 1.92814 7.34007 1.2771 8.68258 1.2771C10.235 1.2771 11.5433 2.70064 11.5433 4.38168C11.5433 4.38168 11.5433 4.46427 11.5336 4.60031C11.5336 4.66347 11.5238 4.72663 11.5141 4.78979C11.4262 5.49913 11.0405 7.33078 9.31722 9.01182C9.28305 9.04583 9.23423 9.06527 9.19029 9.06527H9.18053Z" fill="#9E9FA1" stroke="#9E9FA1" stroke-width="0.46"/>
</g>
<defs>
<clipPath id="clip0_2127_3284">
<rect width="12" height="10.1053" fill="white" transform="translate(0 0.947266)"/>
</clipPath>
</defs>
</svg>
