<svg width="21" height="24" viewBox="0 0 21 24" fill="none" xmlns="http://www.w3.org/2000/svg">
<g id="_&#235;&#160;&#136;&#236;&#157;&#180;&#236;&#150;&#180;_1" clip-path="url(#clip0_2311_3507)">
<path id="Vector" d="M13.5735 13.5C13.1435 13.5 12.8035 13.84 12.8035 14.27C12.8035 14.7 13.1435 15.04 13.5735 15.04C14.0035 15.04 14.3435 14.7 14.3435 14.27C14.3435 13.84 14.0035 13.5 13.5735 13.5Z" fill="#BEBEBE"/>
<path id="Vector_2" d="M16.1335 1.6C17.6235 1.6 18.8335 2.81 18.8335 4.3V19.7C18.8335 21.19 17.6235 22.4 16.1335 22.4H4.87349C3.38349 22.4 2.17349 21.19 2.17349 19.7V4.3C2.17349 2.81 3.38349 1.6 4.87349 1.6H16.1335ZM16.1335 0H4.87349C2.50349 0 0.573486 1.93 0.573486 4.3V19.7C0.573486 22.08 2.50349 24 4.87349 24H16.1335C18.5135 24 20.4335 22.07 20.4335 19.7V4.3C20.4335 1.92 18.5035 0 16.1335 0Z" fill="#9E9FA1"/>
<path id="Vector_3" d="M5.09351 5.95001H12.5735" stroke="#BEBEBE" stroke-width="1.6" stroke-miterlimit="10" stroke-linecap="round"/>
<path id="Vector_4" d="M5.09351 9.26999H12.5735" stroke="#BEBEBE" stroke-width="1.6" stroke-miterlimit="10" stroke-linecap="round"/>
<path id="Vector_5" d="M5.09351 14.35H10.2435" stroke="#BEBEBE" stroke-width="1.6" stroke-miterlimit="10" stroke-linecap="round"/>
</g>
<defs>
<clipPath id="clip0_2311_3507">
<rect width="19.86" height="24" fill="white" transform="translate(0.573486)"/>
</clipPath>
</defs>
</svg>
