<svg width="24" height="24" viewBox="0 0 24 24" fill="none" xmlns="http://www.w3.org/2000/svg">
<g id="_&#235;&#160;&#136;&#236;&#157;&#180;&#236;&#150;&#180;_1" clip-path="url(#clip0_4220_11678)">
<path id="Vector" d="M9.02633 1.50439C13.1784 1.50439 16.5483 4.87422 16.5483 9.02633C16.5483 13.1784 13.1784 16.5483 9.02633 16.5483C4.87422 16.5483 1.50439 13.1784 1.50439 9.02633C1.50439 4.87422 4.87422 1.50439 9.02633 1.50439ZM9.02633 0C4.04179 0 0 4.04179 0 9.02633C0 14.0109 4.04179 18.0527 9.02633 18.0527C14.0109 18.0527 18.0527 14.0109 18.0527 9.02633C18.0527 4.04179 14.0109 0 9.02633 0Z" fill="black"/>
<path id="Vector_2" d="M16.7388 16.7388L23.2478 23.2478" stroke="black" stroke-width="1.5" stroke-linecap="round" stroke-linejoin="round"/>
<path id="Vector_3" d="M12.3962 7.03026C12.9501 7.03026 13.3992 6.58124 13.3992 6.02734C13.3992 5.47344 12.9501 5.02441 12.3962 5.02441C11.8423 5.02441 11.3933 5.47344 11.3933 6.02734C11.3933 6.58124 11.8423 7.03026 12.3962 7.03026Z" fill="#191919"/>
</g>
<defs>
<clipPath id="clip0_4220_11678">
<rect width="24" height="24" fill="white"/>
</clipPath>
</defs>
</svg>
