<?xml version="1.0" encoding="utf-8"?>
<!-- Generator: Adobe Illustrator 27.4.0, SVG Export Plug-In . SVG Version: 6.00 Build 0)  -->
<svg version="1.1" id="레이어_1" xmlns="http://www.w3.org/2000/svg" xmlns:xlink="http://www.w3.org/1999/xlink" x="0px"
	 y="0px" viewBox="0 0 24 24" style="enable-background:new 0 0 24 24;" xml:space="preserve">
<style type="text/css">
	.st0{fill:#E70050;}
	.st1{fill:#040000;}
</style>
<g>
	<g>
		<path class="st0" d="M15.1,13.5c-0.4,0-0.8,0.3-0.8,0.8c0,0.4,0.3,0.8,0.8,0.8s0.8-0.3,0.8-0.8C15.8,13.8,15.5,13.5,15.1,13.5
			L15.1,13.5z"/>
	</g>
	<g>
		<path class="st1" d="M17.6,1.5c1.5,0,2.8,1.3,2.8,2.8v15.4c0,1.5-1.3,2.8-2.8,2.8H6.4c-1.5,0-2.8-1.3-2.8-2.8V4.3
			c0-1.5,1.3-2.8,2.8-2.8H17.6 M17.6,0H6.4C4,0,2.1,1.9,2.1,4.3v15.4C2.1,22.1,4,24,6.4,24h11.3c2.4,0,4.3-1.9,4.3-4.3V4.3
			C21.9,1.9,20,0,17.6,0L17.6,0z"/>
	</g>
	<g>
		<path class="st0" d="M14.1,6.7H6.6c-0.4,0-0.8-0.3-0.8-0.8s0.3-0.8,0.8-0.8h7.5c0.4,0,0.8,0.3,0.8,0.8S14.5,6.7,14.1,6.7z"/>
	</g>
	<g>
		<path class="st0" d="M14.1,10H6.6c-0.4,0-0.8-0.3-0.8-0.8s0.3-0.8,0.8-0.8h7.5c0.4,0,0.8,0.3,0.8,0.8S14.5,10,14.1,10z"/>
	</g>
	<g>
		<path class="st0" d="M11.7,15.1H6.6c-0.4,0-0.8-0.3-0.8-0.8s0.3-0.8,0.8-0.8h5.2c0.4,0,0.8,0.3,0.8,0.8S12.2,15.1,11.7,15.1z"/>
	</g>
</g>
</svg>
