<svg width="25" height="24" viewBox="0 0 25 24" fill="none" xmlns="http://www.w3.org/2000/svg">
<g id="_&#235;&#160;&#136;&#236;&#157;&#180;&#236;&#150;&#180;_1" clip-path="url(#clip0_3599_3605)">
<path id="Vector" d="M12.4515 1.71C13.0315 1.71 13.6015 1.92 14.0515 2.29L22.0515 8.96C22.6215 9.44 22.9515 10.14 22.9515 10.88V20.01C22.9515 21.39 21.8315 22.51 20.4515 22.51H4.45154C3.07154 22.51 1.95154 21.39 1.95154 20.01V10.88C1.95154 10.14 2.28154 9.44 2.85154 8.96L10.8515 2.29C11.3015 1.92 11.8715 1.71 12.4515 1.71ZM12.4515 0.209997C11.5415 0.209997 10.6315 0.519997 9.89154 1.14L1.89154 7.8C0.981538 8.56 0.451538 9.69 0.451538 10.87V20C0.451538 22.21 2.24154 24 4.45154 24H20.4515C22.6615 24 24.4515 22.21 24.4515 20V10.87C24.4515 9.68 23.9215 8.56 23.0115 7.8L15.0115 1.13C14.2715 0.509997 13.3615 0.199997 12.4515 0.199997V0.209997Z" fill="black"/>
<path id="Vector_2" d="M17.1316 13.12C17.5458 13.12 17.8816 12.7842 17.8816 12.37C17.8816 11.9558 17.5458 11.62 17.1316 11.62C16.7174 11.62 16.3816 11.9558 16.3816 12.37C16.3816 12.7842 16.7174 13.12 17.1316 13.12Z" fill="#E70050"/>
<path id="Vector_3" d="M14.9515 15.5V22.5H9.95154V15.5H14.9515ZM15.4515 14H9.45154C8.90154 14 8.45154 14.45 8.45154 15V23C8.45154 23.55 8.90154 24 9.45154 24H15.4515C16.0015 24 16.4515 23.55 16.4515 23V15C16.4515 14.45 16.0015 14 15.4515 14Z" fill="black"/>
</g>
<defs>
<clipPath id="clip0_3599_3605">
<rect width="24" height="24" fill="white" transform="translate(0.451538)"/>
</clipPath>
</defs>
</svg>
