<svg width="16" height="15" viewBox="0 0 16 15" fill="none" xmlns="http://www.w3.org/2000/svg">
<g id="time">
<path id="Vector" d="M8 1.5C11.3075 1.5 14 4.1925 14 7.5C14 10.8075 11.3075 13.5 8 13.5C4.6925 13.5 2 10.8075 2 7.5C2 4.1925 4.6925 1.5 8 1.5ZM8 0C3.86 0 0.5 3.36 0.5 7.5C0.5 11.64 3.86 15 8 15C12.14 15 15.5 11.64 15.5 7.5C15.5 3.36 12.14 0 8 0Z" fill="#9E9FA1"/>
<path id="Vector_2" d="M10.8125 5.18997C10.5425 4.88247 10.07 4.85247 9.77 5.12247L8.75 6.02247V3.15747C8.75 2.74497 8.4125 2.40747 8 2.40747C7.5875 2.40747 7.25 2.74497 7.25 3.15747V7.65747C7.25 7.70247 7.265 7.73997 7.2725 7.78497C7.28 7.83747 7.28749 7.88997 7.30249 7.93497C7.30999 7.96497 7.33249 7.97997 7.34749 8.00997C7.37749 8.06247 7.3925 8.12247 7.4375 8.16747C7.5875 8.33247 7.79 8.41497 8 8.40747C8.09 8.40747 8.18 8.39247 8.27 8.35497C8.3075 8.33997 8.33 8.31747 8.36 8.30247C8.3975 8.27997 8.4425 8.26497 8.48 8.23497L10.745 6.23247C11.0525 5.96247 11.0825 5.48997 10.8125 5.18997Z" fill="#9E9FA1"/>
</g>
</svg>
