<svg width="18" height="17" viewBox="0 0 18 17" fill="none" xmlns="http://www.w3.org/2000/svg">
<g id="Group 1005">
<path id="Union" fill-rule="evenodd" clip-rule="evenodd" d="M16.875 3.73212C16.875 2.60379 16.035 1.68805 15 1.68805H3C1.965 1.68805 1.125 2.60379 1.125 3.73212V10.2731C1.125 11.4015 1.965 12.3172 3 12.3172H6.0975C6.4575 12.3172 6.795 12.4971 7.005 12.816L9 15.0258L10.995 12.816C11.205 12.5053 11.5425 12.3172 11.9025 12.3172H15C16.035 12.3172 16.875 11.4015 16.875 10.2731V3.73212ZM3 0.461609H15C16.6575 0.461609 18 1.92516 18 3.73212V10.2731C18 12.0801 16.6575 13.5437 15 13.5437H11.9025L9.6075 16.2032C9.4575 16.4239 9.2325 16.5384 9 16.5384C8.7675 16.5384 8.5425 16.4239 8.3925 16.2032L6.0975 13.5437H3C1.3425 13.5437 0 12.0801 0 10.2731V3.73212C0 1.92516 1.3425 0.461609 3 0.461609ZM5.8125 6.62567C5.8125 7.03989 5.47671 7.37567 5.0625 7.37567C4.64829 7.37567 4.3125 7.03989 4.3125 6.62567C4.3125 6.21146 4.64829 5.87567 5.0625 5.87567C5.47671 5.87567 5.8125 6.21146 5.8125 6.62567ZM9 7.37567C9.41421 7.37567 9.75 7.03989 9.75 6.62567C9.75 6.21146 9.41421 5.87567 9 5.87567C8.58579 5.87567 8.25 6.21146 8.25 6.62567C8.25 7.03989 8.58579 7.37567 9 7.37567ZM13.6875 6.62567C13.6875 7.03989 13.3517 7.37567 12.9375 7.37567C12.5233 7.37567 12.1875 7.03989 12.1875 6.62567C12.1875 6.21146 12.5233 5.87567 12.9375 5.87567C13.3517 5.87567 13.6875 6.21146 13.6875 6.62567Z" fill="#E70050"/>
</g>
</svg>
