<svg width="16" height="16" viewBox="0 0 16 16" fill="none" xmlns="http://www.w3.org/2000/svg">
<g id="Group 1055">
<path id="Union" fill-rule="evenodd" clip-rule="evenodd" d="M7.81014 15.8643C7.3654 15.8643 6.99659 15.4955 6.99659 15.0507V8.85669H0.813558C0.368813 8.85669 0 8.48788 0 8.04313C0 7.59839 0.368813 7.22957 0.813558 7.22957H6.99659V0.949055C6.99659 0.504311 7.3654 0.135498 7.81014 0.135498C8.25489 0.135498 8.6237 0.504311 8.6237 0.949055V7.22957H11.661C12.1057 7.22957 12.4746 7.59839 12.4746 8.04313C12.4746 8.48788 12.1057 8.85669 11.661 8.85669H8.6237V15.0507C8.6237 15.4955 8.25489 15.8643 7.81014 15.8643ZM16 8.04321C16 8.6423 15.5143 9.12795 14.9152 9.12795C14.3162 9.12795 13.8305 8.6423 13.8305 8.04321C13.8305 7.44412 14.3162 6.95847 14.9152 6.95847C15.5143 6.95847 16 7.44412 16 8.04321Z" fill="white"/>
</g>
</svg>
