<svg width="15" height="15" viewBox="0 0 15 15" fill="none" xmlns="http://www.w3.org/2000/svg">
<g id="Frame 1321317730">
<path id="Vector" d="M7.50313 0.937256C11.1234 0.937256 14.0684 3.31851 14.0684 6.24976C14.0684 9.18101 11.1234 11.5623 7.50313 11.5623C7.44685 11.5623 7.39683 11.5623 7.34056 11.556H7.19675C7.19675 11.556 7.17174 11.5498 7.15923 11.5498C6.80283 11.5498 6.4777 11.7498 6.32138 12.0685L5.32097 14.0623L3.63902 10.6998C3.56399 10.556 3.45769 10.431 3.32013 10.3373C1.80075 9.31851 0.931638 7.83101 0.931638 6.24976C0.937891 3.31851 3.88287 0.937256 7.50313 0.937256ZM7.50313 -0.000244141C3.35765 -0.000244141 0 2.79976 0 6.24976C0 8.21851 1.09421 9.97476 2.80117 11.1185L4.48312 14.481C4.65819 14.8248 4.98958 14.9998 5.32097 14.9998C5.65236 14.9998 5.99 14.8248 6.15882 14.481L7.15923 12.4873C7.27178 12.4873 7.38433 12.4998 7.49687 12.4998C11.6424 12.4998 15 9.69976 15 6.24976C15 2.79976 11.6486 -0.000244141 7.50313 -0.000244141Z" fill="#FF7E8D"/>
<g id="Group">
<path id="Vector_2" d="M10.2461 6.875C10.5914 6.875 10.8714 6.59518 10.8714 6.25C10.8714 5.90482 10.5914 5.625 10.2461 5.625C9.90079 5.625 9.62085 5.90482 9.62085 6.25C9.62085 6.59518 9.90079 6.875 10.2461 6.875Z" fill="#FF7E8D"/>
<path id="Vector_3" d="M7.62404 6.95605C7.96936 6.95605 8.2493 6.67623 8.2493 6.33105C8.2493 5.98588 7.96936 5.70605 7.62404 5.70605C7.27872 5.70605 6.99878 5.98588 6.99878 6.33105C6.99878 6.67623 7.27872 6.95605 7.62404 6.95605Z" fill="#FF7E8D"/>
<path id="Vector_4" d="M5.00197 6.95605C5.34729 6.95605 5.62723 6.67623 5.62723 6.33105C5.62723 5.98588 5.34729 5.70605 5.00197 5.70605C4.65665 5.70605 4.37671 5.98588 4.37671 6.33105C4.37671 6.67623 4.65665 6.95605 5.00197 6.95605Z" fill="#FF7E8D"/>
</g>
</g>
</svg>
