<svg width="32" height="32" viewBox="0 0 32 32" fill="none" xmlns="http://www.w3.org/2000/svg">
<path d="M17.8438 5.52585C17.032 5.52585 16.2202 5.80304 15.5601 6.35742L8.4236 12.3215C7.61183 13.001 7.13904 14.0114 7.13904 15.0665V23.2302C7.13904 25.2063 8.73582 26.8068 10.7073 26.8068H24.9802C26.9517 26.8068 28.5485 25.2063 28.5485 23.2302V15.0665C28.5485 14.0025 28.0757 13.001 27.2639 12.3215L20.1274 6.35742C19.4673 5.80304 18.6555 5.52585 17.8438 5.52585Z" fill="#FFE8DE"/>
<path d="M17.8438 5.52585C17.032 5.52585 16.2202 5.80304 15.5601 6.35742L8.4236 12.3215C7.61183 13.001 7.13904 14.0114 7.13904 15.0665V23.2302C7.13904 25.2063 8.73582 26.8068 10.7073 26.8068H24.9802C26.9517 26.8068 28.5485 25.2063 28.5485 23.2302V15.0665C28.5485 14.0025 28.0757 13.001 27.2639 12.3215L20.1274 6.35742C19.4673 5.80304 18.6555 5.52585 17.8438 5.52585Z" fill="#FFE8DE"/>
<g clip-path="url(#clip0_5216_1530)">
<path d="M15.4515 5.71C16.0315 5.71 16.6015 5.92 17.0515 6.29L25.0515 12.96C25.6215 13.44 25.9515 14.14 25.9515 14.88V24.01C25.9515 25.39 24.8315 26.51 23.4515 26.51H7.45154C6.07154 26.51 4.95154 25.39 4.95154 24.01V14.88C4.95154 14.14 5.28154 13.44 5.85154 12.96L13.8515 6.29C14.3015 5.92 14.8715 5.71 15.4515 5.71ZM15.4515 4.21C14.5415 4.21 13.6315 4.52 12.8915 5.14L4.89154 11.8C3.98154 12.56 3.45154 13.69 3.45154 14.87V24C3.45154 26.21 5.24154 28 7.45154 28H23.4515C25.6615 28 27.4515 26.21 27.4515 24V14.87C27.4515 13.68 26.9215 12.56 26.0115 11.8L18.0115 5.13C17.2715 4.51 16.3615 4.2 15.4515 4.2V4.21Z" fill="black"/>
<path d="M20.1316 17.12C20.5458 17.12 20.8816 16.7842 20.8816 16.37C20.8816 15.9558 20.5458 15.62 20.1316 15.62C19.7174 15.62 19.3816 15.9558 19.3816 16.37C19.3816 16.7842 19.7174 17.12 20.1316 17.12Z" fill="#E70050"/>
<path d="M17.9515 19.5V26.5H12.9515V19.5H17.9515ZM18.4515 18H12.4515C11.9015 18 11.4515 18.45 11.4515 19V27C11.4515 27.55 11.9015 28 12.4515 28H18.4515C19.0015 28 19.4515 27.55 19.4515 27V19C19.4515 18.45 19.0015 18 18.4515 18Z" fill="black"/>
</g>
<defs>
<clipPath id="clip0_5216_1530">
<rect width="24" height="24" fill="white" transform="translate(3.45154 4)"/>
</clipPath>
</defs>
</svg>
