<svg width="24" height="24" viewBox="0 0 24 24" fill="none" xmlns="http://www.w3.org/2000/svg">
<g id="_&#235;&#160;&#136;&#236;&#157;&#180;&#236;&#150;&#180;_1" clip-path="url(#clip0_1494_5779)">
<path id="Vector" d="M9.03341 1.50439C13.1855 1.50439 16.5553 4.87422 16.5553 9.02633C16.5553 13.1784 13.1855 16.5483 9.03341 16.5483C4.8813 16.5483 1.51147 13.1784 1.51147 9.02633C1.51147 4.87422 4.8813 1.50439 9.03341 1.50439ZM9.03341 0C4.04887 0 0.00708008 4.04179 0.00708008 9.02633C0.00708008 14.0109 4.04887 18.0527 9.03341 18.0527C14.0179 18.0527 18.0597 14.0109 18.0597 9.02633C18.0597 4.04179 14.0179 0 9.03341 0Z" fill="black"/>
<path id="Vector_2" d="M16.7458 16.7388L23.2548 23.2478" stroke="black" stroke-width="1.5" stroke-linecap="round" stroke-linejoin="round"/>
<path id="Vector_3" d="M12.4033 7.03051C12.9572 7.03051 13.4062 6.58148 13.4062 6.02758C13.4062 5.47368 12.9572 5.02466 12.4033 5.02466C11.8494 5.02466 11.4004 5.47368 11.4004 6.02758C11.4004 6.58148 11.8494 7.03051 12.4033 7.03051Z" fill="#191919"/>
</g>
<defs>
<clipPath id="clip0_1494_5779">
<rect width="24" height="24" fill="white" transform="translate(0.00708008)"/>
</clipPath>
</defs>
</svg>
