<svg width="61" height="60" viewBox="0 0 61 60" fill="none" xmlns="http://www.w3.org/2000/svg">
<g clip-path="url(#clip0_7122_3099)">
<path d="M30.229 60C46.7975 60 60.229 46.5685 60.229 30C60.229 13.4315 46.7975 0 30.229 0C13.6605 0 0.229004 13.4315 0.229004 30C0.229004 46.5685 13.6605 60 30.229 60Z" fill="#E4E5E7"/>
<path d="M30.229 10.9497C33.479 10.9497 36.129 13.5997 36.129 16.8497C36.129 20.0997 33.479 22.7497 30.229 22.7497C26.979 22.7497 24.329 20.0997 24.329 16.8497C24.329 13.5997 26.979 10.9497 30.229 10.9497ZM30.229 7.19971C24.904 7.19971 20.579 11.5247 20.579 16.8497C20.579 22.1747 24.904 26.4997 30.229 26.4997C35.554 26.4997 39.879 22.1747 39.879 16.8497C39.879 11.5247 35.554 7.19971 30.229 7.19971Z" fill="black"/>
<path d="M49.1539 43.9246C48.5539 43.9246 47.954 43.6246 47.579 43.0746C43.704 37.2246 37.2289 33.7496 30.2289 33.7496C23.2289 33.7496 16.7539 37.2496 12.8789 43.0746C12.3039 43.9496 11.1539 44.1746 10.2789 43.5996C9.40395 43.0246 9.17895 41.8746 9.75395 40.9996C14.3289 34.0996 21.9789 29.9746 30.2289 29.9746C38.4789 29.9746 46.1539 34.0996 50.7039 40.9996C51.2789 41.8746 51.0289 43.0246 50.1789 43.5996C49.8539 43.7996 49.5039 43.8996 49.1539 43.8996V43.9246Z" fill="black"/>
<path d="M39.129 42.3247C38.054 42.3247 37.179 43.1997 37.179 44.2747C37.179 45.3497 38.054 46.2247 39.129 46.2247C40.204 46.2247 41.079 45.3497 41.079 44.2747C41.079 43.1997 40.204 42.3247 39.129 42.3247Z" fill="#E70050"/>
</g>
<defs>
<clipPath id="clip0_7122_3099">
<rect width="60" height="60" fill="white" transform="translate(0.229004)"/>
</clipPath>
</defs>
</svg>
