<?xml version="1.0" encoding="UTF-8"?>
<svg id="_레이어_2" data-name="레이어 2" xmlns="http://www.w3.org/2000/svg" viewBox="0 0 24 20.58">
  <defs>
    <style>
      .cls-1, .cls-2 {
        stroke-width: 0px;
      }

      .cls-2 {
        fill: #e70050;
      }
    </style>
  </defs>
  <g id="_레이어_1-2" data-name="레이어 1">
    <path class="cls-1" d="M20,1.5c1.38,0,2.5,1.12,2.5,2.5v8c0,1.38-1.12,2.5-2.5,2.5h-4.13c-.48,0-.93.23-1.21.61l-2.66,3.62-2.66-3.62c-.28-.39-.73-.61-1.21-.61h-4.13c-1.38,0-2.5-1.12-2.5-2.5V4c0-1.38,1.12-2.5,2.5-2.5h16M20,0H4C1.79,0,0,1.79,0,4v8c0,2.21,1.79,4,4,4h4.13l3.06,4.17c.2.27.5.41.81.41s.61-.14.81-.41l3.06-4.17h4.13c2.21,0,4-1.79,4-4V4c0-2.21-1.79-4-4-4h0Z"/>
    <circle class="cls-2" cx="6.75" cy="8.5" r="1"/>
    <circle class="cls-2" cx="12" cy="8.5" r="1"/>
    <circle class="cls-2" cx="17.25" cy="8.5" r="1"/>
  </g>
</svg>