<svg width="20" height="20" viewBox="0 0 20 20" fill="none" xmlns="http://www.w3.org/2000/svg">
<path fill-rule="evenodd" clip-rule="evenodd" d="M13.3016 2.8075C13.3016 3.25333 12.9401 3.61475 12.4943 3.61475C12.0485 3.61475 11.687 3.25333 11.687 2.8075C11.687 2.36166 12.0485 2.00024 12.4943 2.00024C12.9401 2.00024 13.3016 2.36166 13.3016 2.8075ZM8.684 17.1927C8.684 17.6386 8.32258 18 7.87674 18C7.43091 18 7.06949 17.6386 7.06949 17.1927C7.06949 16.7469 7.43091 16.3855 7.87674 16.3855C8.32258 16.3855 8.684 16.7469 8.684 17.1927ZM3.31901 9.81017C3.38311 6.22436 6.37317 3.31842 10.0726 3.31842C10.3546 3.31842 10.5832 3.0898 10.5832 2.80779C10.5832 2.52577 10.3546 2.29715 10.0726 2.29715C5.8276 2.29715 2.36083 5.64252 2.29756 9.81172L1.90011 9.5176C1.67342 9.34985 1.35365 9.39763 1.18589 9.62433C1.01814 9.85102 1.06592 10.1708 1.29261 10.3385L2.50349 11.2346C2.68397 11.3682 2.93051 11.3682 3.11099 11.2346L4.32187 10.3385C4.54857 10.1708 4.59635 9.85102 4.42859 9.62433C4.26084 9.39763 3.94107 9.34985 3.71437 9.5176L3.31901 9.81017ZM17.7022 10.0435L18.0999 10.3378C18.3266 10.5055 18.6464 10.4577 18.8141 10.231C18.9819 10.0043 18.9341 9.68456 18.7074 9.51681L17.4965 8.62076C17.3161 8.4872 17.0695 8.4872 16.889 8.62076L15.6782 9.51681C15.4515 9.68456 15.4037 10.0043 15.5714 10.231C15.7392 10.4577 16.059 10.5055 16.2857 10.3378L16.6808 10.0454C16.6192 13.7304 13.6738 16.6822 10.0724 16.6822C9.79042 16.6822 9.5618 16.9108 9.5618 17.1928C9.5618 17.4749 9.79042 17.7035 10.0724 17.7035C14.2573 17.7035 17.6414 14.2747 17.7022 10.0435ZM10.0724 9.26563C10.9641 9.26563 11.6869 8.5428 11.6869 7.65113C11.6869 6.75946 10.9641 6.03662 10.0724 6.03662C9.18075 6.03662 8.45791 6.75946 8.45791 7.65113C8.45791 8.5428 9.18075 9.26563 10.0724 9.26563ZM12.8736 12.6076C12.3979 11.5029 11.3099 10.7687 10.0765 10.7671C8.84306 10.7687 7.75513 11.5029 7.27937 12.6076H12.8736ZM5.93125 12.8014C6.39077 10.9391 8.06597 9.55993 10.0644 9.55623C12.0709 9.55993 13.7461 10.9391 14.1975 12.8014C14.3267 13.3099 13.9392 13.8104 13.4145 13.8104H6.71429C6.18957 13.8104 5.81017 13.3099 5.93125 12.8014ZM10.0644 9.55623C10.0671 9.55623 10.0698 9.55622 10.0725 9.55622H10.0563C10.059 9.55622 10.0617 9.55623 10.0644 9.55623Z" fill="#BEBEBE"/>
</svg>
