<svg width="16" height="16" viewBox="0 0 16 16" fill="none" xmlns="http://www.w3.org/2000/svg">
<circle cx="8" cy="8" r="8" fill="#E4E5E7"/>
<path d="M8.00016 3.15802C8.70858 3.15802 9.28543 3.73487 9.28543 4.44328C9.28543 5.15169 8.70858 5.72854 8.00016 5.72854C7.29175 5.72854 6.7149 5.15169 6.7149 4.44328C6.7149 3.73487 7.29175 3.15802 8.00016 3.15802ZM8.00016 1.77661C6.52768 1.77661 5.3335 2.97079 5.3335 4.44328C5.3335 5.91576 6.52768 7.10995 8.00016 7.10995C9.47265 7.10995 10.6668 5.91576 10.6668 4.44328C10.6668 2.97079 9.47265 1.77661 8.00016 1.77661Z" fill="#727375"/>
<path d="M13.1751 12.0875C12.9543 12.0875 12.7334 11.9741 12.6029 11.7732C11.5741 10.181 9.85259 9.22773 7.9956 9.22773C6.13861 9.22773 4.41211 10.181 3.38826 11.7732C3.17747 12.0978 2.75588 12.1854 2.43969 11.969C2.1235 11.7525 2.03818 11.3197 2.24897 10.9951C3.52879 9.00616 5.67687 7.82104 8.00062 7.82104C10.3244 7.82104 12.4674 9.00616 13.7523 10.9951C13.9631 11.3197 13.8727 11.7525 13.5615 11.969C13.4461 12.0462 13.3156 12.0875 13.1851 12.0875H13.1751Z" fill="#727375"/>
<path d="M10.1335 11.3767C9.64413 11.3767 9.24463 11.7762 9.24463 12.2656C9.24463 12.755 9.64413 13.1545 10.1335 13.1545C10.6229 13.1545 11.0224 12.755 11.0224 12.2656C11.0224 11.7762 10.6229 11.3767 10.1335 11.3767Z" fill="#9E9FA1"/>
</svg>
