<svg width="12" height="10" viewBox="0 0 12 10" fill="none" xmlns="http://www.w3.org/2000/svg">
<path id="Union" fill-rule="evenodd" clip-rule="evenodd" d="M9.20569 7.95443L9.81705 7.27119C11.0275 5.76017 11.332 4.27164 11.4098 3.64048C11.4199 3.57502 11.43 3.50956 11.43 3.4441C11.4401 3.30311 11.4401 3.21752 11.4401 3.21752C11.4401 2.24354 11.018 1.35297 10.3657 0.756958L10.363 0.748945L10.3545 0.746812C9.8417 0.282732 9.18842 0 8.48685 0C7.40999 0 6.40919 0.407366 5.71852 1.09454C5.02795 0.408202 4.02851 0.00506044 2.95322 0.00506044C1.35062 0.00506044 0 1.48039 0 3.22257C0 3.22257 0 3.30314 0.0100793 3.44916C0.0151189 3.51462 0.0201585 3.58008 0.0302378 3.6405C0.13103 4.49649 0.619875 6.68682 2.89779 8.54985C3.46223 9.00806 4.10226 9.42598 4.80781 9.78348C5.09003 9.9295 5.40249 10 5.71494 10C6.0274 10 6.33986 9.93958 6.62208 9.79355L6.65257 9.77715C7.40283 9.46535 8.21519 8.90493 9.04593 8.07402C9.10183 8.02888 9.15479 7.9885 9.20569 7.95443ZM3.13678 8.26268V8.26459L3.13465 8.26284L3.13077 8.25967L3.13678 8.26268Z" fill="#FF7E8D"/>
</svg>
