<svg width="25" height="24" viewBox="0 0 25 24" fill="none" xmlns="http://www.w3.org/2000/svg">
<g id="_&#235;&#160;&#136;&#236;&#157;&#180;&#236;&#150;&#180;_1" clip-path="url(#clip0_2311_2754)">
<path id="Vector" d="M12.5071 1.70995C13.0871 1.70995 13.6571 1.91995 14.1071 2.28995L22.1071 8.95995C22.6771 9.43995 23.0071 10.14 23.0071 10.88V20.01C23.0071 21.3899 21.8871 22.51 20.5071 22.51H4.50708C3.12708 22.51 2.00708 21.3899 2.00708 20.01V10.88C2.00708 10.14 2.33708 9.43995 2.90708 8.95995L10.9071 2.28995C11.3571 1.91995 11.9271 1.70995 12.5071 1.70995ZM12.5071 0.209951C11.5971 0.209951 10.6871 0.519951 9.94708 1.13995L1.94708 7.79995C1.03708 8.55995 0.50708 9.68995 0.50708 10.87V20C0.50708 22.2099 2.29708 24 4.50708 24H20.5071C22.7171 24 24.5071 22.2099 24.5071 20V10.87C24.5071 9.67995 23.9771 8.55995 23.0671 7.79995L15.0671 1.12995C14.3271 0.509951 13.4171 0.199951 12.5071 0.199951V0.209951Z" fill="#9E9FA1"/>
<path id="Vector_2" d="M17.187 13.1201C17.6012 13.1201 17.937 12.7843 17.937 12.3701C17.937 11.9559 17.6012 11.6201 17.187 11.6201C16.7728 11.6201 16.437 11.9559 16.437 12.3701C16.437 12.7843 16.7728 13.1201 17.187 13.1201Z" fill="#BEBEBE"/>
<path id="Vector_3" d="M15.0071 15.5V22.5H10.0071V15.5H15.0071ZM15.5071 14H9.50708C8.95708 14 8.50708 14.45 8.50708 15V23C8.50708 23.55 8.95708 24 9.50708 24H15.5071C16.0571 24 16.5071 23.55 16.5071 23V15C16.5071 14.45 16.0571 14 15.5071 14Z" fill="#9E9FA1"/>
</g>
<defs>
<clipPath id="clip0_2311_2754">
<rect width="24" height="24" fill="white" transform="translate(0.50708)"/>
</clipPath>
</defs>
</svg>
