<svg width="40" height="32" viewBox="0 0 40 32" fill="none" xmlns="http://www.w3.org/2000/svg">
<g id="_&#235;&#160;&#136;&#236;&#157;&#180;&#236;&#150;&#180;_1" clip-path="url(#clip0_1586_5035)">
<g id="Group">
<path id="Vector" d="M28.201 31.3361C21.6953 31.3361 16.4031 26.0438 16.4031 19.5382C16.4031 13.0325 21.6953 7.74023 28.201 7.74023C34.7067 7.74023 39.9989 13.0325 39.9989 19.5382C39.9989 21.6266 39.4541 23.6532 38.4157 25.4441L39.2044 28.8603C39.3444 29.4693 39.1495 30.1075 38.6922 30.5334C38.2348 30.9604 37.585 31.1097 36.9864 30.9266L33.7639 29.9407C32.057 30.8554 30.1494 31.3361 28.1998 31.3361H28.201ZM28.201 11.2392C23.6251 11.2392 19.9033 14.9623 19.9033 19.537C19.9033 24.1117 23.6263 27.8347 28.201 27.8347C29.7667 27.8347 31.2928 27.3949 32.6136 26.563C33.0441 26.2923 33.5714 26.2212 34.058 26.3705L35.1115 26.6925L34.842 25.5258C34.7335 25.0544 34.8245 24.5586 35.094 24.1572C36.0122 22.7898 36.4976 21.1926 36.4976 19.5382C36.4976 14.9623 32.7746 11.2404 28.1998 11.2404L28.201 11.2392Z" fill="#FFA2B8"/>
<path id="Vector_2" d="M6.21981 4.16412C6.27348 4.16412 6.32598 4.16528 6.37965 4.16878L14.1069 4.65414C16.7717 4.82098 19.2288 5.88387 21.0279 7.64679C22.7803 9.36538 23.7464 11.6242 23.7464 14.0066C23.7464 16.3891 22.7815 18.649 21.0279 20.3664C19.23 22.1293 16.7717 23.1922 14.1069 23.3591L6.37965 23.8444C6.32598 23.8479 6.27231 23.8491 6.21864 23.8491C4.79524 23.8491 3.49901 22.6077 3.49901 21.2438V6.76941C3.49901 5.40551 4.79524 4.16412 6.21864 4.16412M6.21981 0.66394C2.84681 0.66394 0 3.48742 0 6.76941V21.245C0 24.527 2.84564 27.3504 6.21981 27.3504C6.34582 27.3504 6.47182 27.3469 6.599 27.3388L14.3262 26.8534C21.5039 26.4031 27.2465 20.9556 27.2465 14.0078C27.2465 7.05993 21.5039 1.61132 14.3262 1.16097L6.599 0.675608C6.47182 0.667441 6.34582 0.66394 6.21981 0.66394Z" fill="#E70050"/>
<g id="Clip path group">
<mask id="mask0_1586_5035" style="mask-type:luminance" maskUnits="userSpaceOnUse" x="12" y="17" width="17" height="11">
<g id="clippath">
<path id="Vector_3" d="M28.1193 24.4837C25.7847 27.1613 22.2075 28.2581 18.7167 27.7295C14.9901 27.166 10.2136 26.4998 12.9332 22.0908C15.5047 17.9244 26.3132 14.0474 28.1193 24.4825C25.7847 27.1602 26.3144 14.0474 28.1193 24.4825V24.4837Z" fill="white"/>
</g>
</mask>
<g mask="url(#mask0_1586_5035)">
<g id="Group_2">
<path id="Vector_4" d="M6.21981 4.16399C6.27348 4.16399 6.32598 4.16516 6.37965 4.16866L14.1069 4.65402C16.7717 4.82086 19.2288 5.88375 21.0279 7.64667C22.7803 9.36525 23.7464 11.624 23.7464 14.0065C23.7464 16.3889 22.7815 18.6489 21.0279 20.3663C19.23 22.1292 16.7717 23.1921 14.1069 23.359L6.37965 23.8443C6.32598 23.8478 6.27231 23.849 6.21864 23.849C4.79524 23.849 3.49901 22.6076 3.49901 21.2437V6.76929C3.49901 5.40539 4.79524 4.16399 6.21864 4.16399M6.21981 0.663818C2.84681 0.663818 0 3.48729 0 6.76929V21.2448C0 24.5268 2.84564 27.3503 6.21981 27.3503C6.34582 27.3503 6.47182 27.3468 6.599 27.3387L14.3262 26.8533C21.5039 26.4029 27.2465 20.9555 27.2465 14.0077C27.2465 7.05981 21.5039 1.6112 14.3262 1.16084L6.599 0.675486C6.47182 0.667319 6.34582 0.663818 6.21981 0.663818Z" fill="#E70050"/>
<path id="Vector_5" d="M28.201 31.3358C21.6953 31.3358 16.4031 26.0436 16.4031 19.5379C16.4031 13.0323 21.6953 7.73999 28.201 7.73999C34.7067 7.73999 39.9989 13.0323 39.9989 19.5379C39.9989 21.6264 39.4541 23.653 38.4157 25.4439L39.2044 28.86C39.3444 29.4691 39.1495 30.1073 38.6922 30.5331C38.2348 30.9602 37.585 31.1095 36.9864 30.9263L33.7639 29.9404C32.057 30.8551 30.1494 31.3358 28.1998 31.3358H28.201ZM28.201 11.239C23.6251 11.239 19.9033 14.962 19.9033 19.5367C19.9033 24.1115 23.6263 27.8345 28.201 27.8345C29.7667 27.8345 31.2928 27.3946 32.6136 26.5628C33.0441 26.2921 33.5714 26.2209 34.058 26.3703L35.1115 26.6923L34.842 25.5255C34.7335 25.0542 34.8245 24.5583 35.094 24.157C36.0122 22.7896 36.4976 21.1923 36.4976 19.5379C36.4976 14.962 32.7746 11.2402 28.1998 11.2402L28.201 11.239Z" fill="#FFA2B8"/>
</g>
</g>
</g>
</g>
<path id="Vector_6" d="M7.40396 14.2515C8.20942 14.2515 8.86237 13.5986 8.86237 12.7931C8.86237 11.9877 8.20942 11.3347 7.40396 11.3347C6.59851 11.3347 5.94556 11.9877 5.94556 12.7931C5.94556 13.5986 6.59851 14.2515 7.40396 14.2515Z" fill="#E70050"/>
<path id="Vector_7" d="M13.0719 14.2515C13.8774 14.2515 14.5303 13.5986 14.5303 12.7931C14.5303 11.9877 13.8774 11.3347 13.0719 11.3347C12.2665 11.3347 11.6135 11.9877 11.6135 12.7931C11.6135 13.5986 12.2665 14.2515 13.0719 14.2515Z" fill="#E70050"/>
</g>
<defs>
<clipPath id="clip0_1586_5035">
<rect width="40" height="30.672" fill="white" transform="translate(0 0.66394)"/>
</clipPath>
</defs>
</svg>
