<svg width="43" height="32" viewBox="0 0 43 32" fill="none" xmlns="http://www.w3.org/2000/svg">
<g id="_&#235;&#160;&#136;&#236;&#157;&#180;&#236;&#150;&#180;_1" clip-path="url(#clip0_917_1461)">
<g id="Group">
<path id="Vector" d="M29.765 32C22.9777 32 17.4563 26.4786 17.4563 19.6913C17.4563 12.904 22.9777 7.38257 29.765 7.38257C36.5523 7.38257 42.0737 12.904 42.0737 19.6913C42.0737 21.8701 41.5053 23.9845 40.4219 25.853L41.2448 29.417C41.3909 30.0524 41.1876 30.7183 40.7104 31.1626C40.2333 31.6081 39.5553 31.7639 38.9308 31.5728L35.5688 30.5442C33.788 31.4985 31.7978 32 29.7638 32H29.765ZM29.765 11.0331C24.991 11.0331 21.108 14.9173 21.108 19.6901C21.108 24.4629 24.9922 28.3471 29.765 28.3471C31.3986 28.3471 32.9907 27.8882 34.3686 27.0203C34.8178 26.7379 35.368 26.6636 35.8756 26.8194L36.9747 27.1554L36.6935 25.9382C36.5803 25.4464 36.6753 24.9291 36.9565 24.5103C37.9144 23.0837 38.4208 21.4173 38.4208 19.6913C38.4208 14.9173 34.5366 11.0343 29.7638 11.0343L29.765 11.0331Z" fill="#FFA2B8"/>
<path id="Vector_2" d="M6.83224 3.65172C6.88823 3.65172 6.94301 3.65293 6.999 3.65659L15.0608 4.16296C17.841 4.33702 20.4045 5.44593 22.2814 7.28518C24.1097 9.07817 25.1176 11.4347 25.1176 13.9203C25.1176 16.4059 24.1109 18.7637 22.2814 20.5555C20.4057 22.3948 17.841 23.5037 15.0608 23.6777L6.999 24.1841C6.94301 24.1878 6.88702 24.189 6.83102 24.189C5.34599 24.189 3.99364 22.8938 3.99364 21.4709V6.36981C3.99364 4.94686 5.34599 3.65172 6.83102 3.65172M6.83224 0C3.3132 0 0.34314 2.94572 0.34314 6.36981V21.4721C0.34314 24.8962 3.31199 27.8419 6.83224 27.8419C6.9637 27.8419 7.09516 27.8383 7.22784 27.8297L15.2896 27.3234C22.7781 26.8535 28.7693 21.1702 28.7693 13.9216C28.7693 6.67291 22.7781 0.988398 15.2896 0.518544L7.22784 0.0121724C7.09516 0.00365172 6.9637 0 6.83224 0Z" fill="#E70050"/>
<g id="Clip path group">
<mask id="mask0_917_1461" style="mask-type:luminance" maskUnits="userSpaceOnUse" x="13" y="17" width="17" height="12">
<g id="clippath">
<path id="Vector_3" d="M29.6798 24.8511C27.2441 27.6447 23.512 28.7889 19.87 28.2375C15.9822 27.6496 10.9988 26.9545 13.8362 22.3546C16.519 18.0078 27.7955 13.9629 29.6798 24.8499C27.2441 27.6435 27.7967 13.9629 29.6798 24.8499V24.8511Z" fill="white"/>
</g>
</mask>
<g mask="url(#mask0_917_1461)">
<g id="Group_2">
<path id="Vector_4" d="M6.83212 3.65172C6.88811 3.65172 6.94289 3.65293 6.99888 3.65659L15.0607 4.16296C17.8408 4.33702 20.4043 5.44593 22.2813 7.28518C24.1096 9.07817 25.1175 11.4347 25.1175 13.9203C25.1175 16.4059 24.1108 18.7637 22.2813 20.5555C20.4056 22.3948 17.8408 23.5037 15.0607 23.6777L6.99888 24.1841C6.94289 24.1878 6.88689 24.189 6.8309 24.189C5.34587 24.189 3.99352 22.8938 3.99352 21.4709V6.36981C3.99352 4.94686 5.34587 3.65172 6.8309 3.65172M6.83212 0C3.31308 0 0.343018 2.94572 0.343018 6.36981V21.4721C0.343018 24.8962 3.31186 27.8419 6.83212 27.8419C6.96358 27.8419 7.09504 27.8383 7.22772 27.8297L15.2895 27.3234C22.778 26.8535 28.7692 21.1702 28.7692 13.9216C28.7692 6.67291 22.778 0.988398 15.2895 0.518544L7.22772 0.0121724C7.09504 0.00365172 6.96358 0 6.83212 0Z" fill="#E70050"/>
<path id="Vector_5" d="M29.7649 32C22.9776 32 17.4562 26.4786 17.4562 19.6913C17.4562 12.904 22.9776 7.38257 29.7649 7.38257C36.5522 7.38257 42.0736 12.904 42.0736 19.6913C42.0736 21.8701 41.5052 23.9845 40.4218 25.853L41.2447 29.417C41.3907 30.0524 41.1875 30.7183 40.7103 31.1626C40.2332 31.6081 39.5552 31.7639 38.9307 31.5728L35.5687 30.5442C33.7879 31.4985 31.7977 32 29.7637 32H29.7649ZM29.7649 11.0331C24.9909 11.0331 21.1079 14.9173 21.1079 19.6901C21.1079 24.4629 24.9921 28.3471 29.7649 28.3471C31.3984 28.3471 32.9906 27.8882 34.3685 27.0203C34.8177 26.7379 35.3678 26.6636 35.8754 26.8194L36.9746 27.1554L36.6934 25.9382C36.5802 25.4464 36.6752 24.9291 36.9563 24.5103C37.9143 23.0837 38.4207 21.4173 38.4207 19.6913C38.4207 14.9173 34.5365 11.0343 29.7637 11.0343L29.7649 11.0331Z" fill="#FFA2B8"/>
</g>
</g>
</g>
</g>
<path id="Vector_6" d="M8.06769 14.176C8.90802 14.176 9.58924 13.4948 9.58924 12.6544C9.58924 11.8141 8.90802 11.1329 8.06769 11.1329C7.22736 11.1329 6.54614 11.8141 6.54614 12.6544C6.54614 13.4948 7.22736 14.176 8.06769 14.176Z" fill="#E70050"/>
<path id="Vector_7" d="M13.9811 14.176C14.8215 14.176 15.5027 13.4948 15.5027 12.6544C15.5027 11.8141 14.8215 11.1329 13.9811 11.1329C13.1408 11.1329 12.4596 11.8141 12.4596 12.6544C12.4596 13.4948 13.1408 14.176 13.9811 14.176Z" fill="#E70050"/>
</g>
<defs>
<clipPath id="clip0_917_1461">
<rect width="41.7318" height="32" fill="white" transform="translate(0.34314)"/>
</clipPath>
</defs>
</svg>
