<svg width="21" height="20" viewBox="0 0 21 20" fill="none" xmlns="http://www.w3.org/2000/svg">
<g clip-path="url(#clip0_4480_16583)">
<path d="M10.8589 20C16.3817 20 20.8589 15.5228 20.8589 10C20.8589 4.47715 16.3817 0 10.8589 0C5.33604 0 0.858887 4.47715 0.858887 10C0.858887 15.5228 5.33604 20 10.8589 20Z" fill="#BEBEBE"/>
<path d="M10.8593 12.2662C10.1538 12.2662 9.58154 11.694 9.58154 10.9885V4.30512C9.58154 3.59957 10.1538 3.02734 10.8593 3.02734C11.5649 3.02734 12.1371 3.59957 12.1371 4.30512V10.9885C12.1371 11.694 11.5649 12.2662 10.8593 12.2662Z" fill="#FFF9FA"/>
<path d="M10.8593 17.0829C11.565 17.0829 12.1371 16.5108 12.1371 15.8051C12.1371 15.0994 11.565 14.5273 10.8593 14.5273C10.1536 14.5273 9.58154 15.0994 9.58154 15.8051C9.58154 16.5108 10.1536 17.0829 10.8593 17.0829Z" fill="#FFF9FA"/>
</g>
<defs>
<clipPath id="clip0_4480_16583">
<rect width="20" height="20" fill="white" transform="translate(0.858887)"/>
</clipPath>
</defs>
</svg>
