<svg width="21" height="24" viewBox="0 0 21 24" fill="none" xmlns="http://www.w3.org/2000/svg">
<g id="_&#235;&#160;&#136;&#236;&#157;&#180;&#236;&#150;&#180;_1">
<g id="Group 1118">
<path id="Vector" d="M16.2278 21.9246H4.28144C3.31667 21.9246 2.42741 21.438 1.89889 20.6327C1.37875 19.8357 1.29486 18.8541 1.67238 17.99C3.14889 14.6259 6.68078 12.4531 10.6741 12.4531C14.3905 12.4531 17.8217 14.4246 19.4241 17.4699C19.6003 17.7971 19.466 18.1998 19.1389 18.376C18.8117 18.5521 18.4006 18.4179 18.2328 18.0907C16.8654 15.4817 13.8956 13.7954 10.6741 13.7954C7.21769 13.7954 4.16399 15.6494 2.9056 18.527C2.70426 18.9716 2.75459 19.475 3.02305 19.8944C3.2999 20.3223 3.77808 20.5823 4.28144 20.5823H16.2278C16.5969 20.5823 16.8989 20.8844 16.8989 21.2535C16.8989 21.6226 16.5969 21.9246 16.2278 21.9246Z" fill="#9E9FA1"/>
<path id="Vector_2" d="M10.7161 3.34228C12.5785 3.34228 14.097 4.86074 14.097 6.72316C14.097 8.58558 12.5785 10.104 10.7161 10.104C8.85366 10.104 7.3352 8.58558 7.3352 6.72316C7.3352 4.86074 8.85366 3.34228 10.7161 3.34228ZM10.7161 2C8.10702 2 5.99292 4.1141 5.99292 6.72316C5.99292 9.33223 8.10702 11.4463 10.7161 11.4463C13.3252 11.4463 15.4392 9.33223 15.4392 6.72316C15.4392 4.1141 13.3252 2 10.7161 2Z" fill="#9E9FA1"/>
<path id="Vector_3" d="M18.8284 20.5066C18.4174 20.5066 18.0818 20.8422 18.0818 21.2532C18.0818 21.6643 18.4174 21.9999 18.8284 21.9999C19.2395 21.9999 19.5751 21.6643 19.5751 21.2532C19.5751 20.8422 19.2395 20.5066 18.8284 20.5066Z" fill="#BEBEBE"/>
</g>
</g>
</svg>
