<svg width="18" height="17" viewBox="0 0 18 17" fill="none" xmlns="http://www.w3.org/2000/svg">
<path id="Union" fill-rule="evenodd" clip-rule="evenodd" d="M12.3016 1.30739C12.3016 1.75322 11.9401 2.11464 11.4943 2.11464C11.0485 2.11464 10.687 1.75322 10.687 1.30739C10.687 0.861557 11.0485 0.500137 11.4943 0.500137C11.9401 0.500137 12.3016 0.861557 12.3016 1.30739ZM7.684 15.6926C7.684 16.1384 7.32258 16.4999 6.87674 16.4999C6.43091 16.4999 6.06949 16.1384 6.06949 15.6926C6.06949 15.2468 6.43091 14.8854 6.87674 14.8854C7.32258 14.8854 7.684 15.2468 7.684 15.6926ZM2.31901 8.31007C2.38311 4.72426 5.37317 1.81832 9.0726 1.81832C9.35462 1.81832 9.58324 1.5897 9.58324 1.30768C9.58324 1.02566 9.35462 0.797042 9.0726 0.797042C4.8276 0.797042 1.36083 4.14241 1.29756 8.31161L0.900112 8.0175C0.673415 7.84974 0.353648 7.89752 0.185892 8.12422C0.0181356 8.35092 0.065917 8.67068 0.292614 8.83844L1.50349 9.73449C1.68397 9.86805 1.93051 9.86805 2.11099 9.73449L3.32187 8.83844C3.54857 8.67068 3.59635 8.35092 3.42859 8.12422C3.26084 7.89752 2.94107 7.84974 2.71437 8.0175L2.31901 8.31007ZM16.7022 8.54334L17.0999 8.83764C17.3266 9.0054 17.6464 8.95762 17.8141 8.73092C17.9819 8.50422 17.9341 8.18446 17.7074 8.0167L16.4965 7.12065C16.3161 6.9871 16.0695 6.9871 15.889 7.12065L14.6782 8.0167C14.4515 8.18446 14.4037 8.50422 14.5714 8.73092C14.7392 8.95762 15.059 9.0054 15.2857 8.83764L15.6808 8.54524C15.6192 12.2303 12.6738 15.1821 9.07244 15.1821C8.79042 15.1821 8.5618 15.4107 8.5618 15.6927C8.5618 15.9748 8.79042 16.2034 9.07244 16.2034C13.2573 16.2034 16.6414 12.7746 16.7022 8.54334ZM9.07242 7.76553C9.96408 7.76553 10.6869 7.04269 10.6869 6.15102C10.6869 5.25935 9.96408 4.53651 9.07242 4.53651C8.18075 4.53651 7.45791 5.25935 7.45791 6.15102C7.45791 7.04269 8.18075 7.76553 9.07242 7.76553ZM11.8736 11.1075C11.3979 10.0028 10.3099 9.2686 9.0765 9.267C7.84306 9.2686 6.75513 10.0028 6.27937 11.1075H11.8736ZM4.93125 11.3013C5.39077 9.43902 7.06597 8.05982 9.06441 8.05612C11.0709 8.05982 12.7461 9.43902 13.1975 11.3013C13.3267 11.8098 12.9392 12.3103 12.4145 12.3103H5.71429C5.18957 12.3103 4.81017 11.8098 4.93125 11.3013ZM9.06441 8.05612C9.06709 8.05612 9.06978 8.05612 9.07246 8.05612H9.05632C9.05901 8.05612 9.06171 8.05612 9.06441 8.05612Z" fill="#E70050"/>
</svg>
