<svg width="213" height="58" viewBox="0 0 213 58" fill="none" xmlns="http://www.w3.org/2000/svg">
<g id="Group">
<g id="Group_2">
<path id="Vector" d="M201.529 54.2519C200.587 54.2519 199.663 53.8885 198.952 53.1784C197.532 51.7581 197.532 49.4459 198.952 48.0091C203.246 43.7151 205.36 39.3716 205.228 35.0776C205.063 29 200.455 24.706 200.406 24.673C198.903 23.3353 198.771 21.0231 200.125 19.5203C201.463 18.0174 203.775 17.8852 205.278 19.2395C205.559 19.4872 212.264 25.5979 212.528 34.896C212.71 41.2874 209.869 47.4476 204.105 53.2114C203.395 53.9051 202.454 54.2519 201.529 54.2519Z" fill="#FF7E8D"/>
</g>
<path id="Vector_2" d="M39.7782 55.4079L26.3348 56.2667C20.1746 56.6631 14.8567 51.4938 14.8567 45.4492V19.768C14.8567 13.7234 20.1911 8.5541 26.3348 8.95046L39.7782 9.80926C52.2638 10.602 62.2555 20.2799 62.2555 32.6003C62.2555 44.9372 52.2638 54.6152 39.7782 55.4079Z" fill="#FFE5DA"/>
<g id="Group_3">
<path id="Vector_3" d="M84.997 56.3823C83.2134 56.3823 81.4297 56.1511 79.6626 55.6887C75.6494 54.6317 72.0986 52.4186 69.3736 49.2973C68.0523 47.7778 68.201 45.4657 69.7204 44.1445C71.2398 42.8233 73.5519 42.9719 74.8731 44.4913C76.6238 46.5062 78.9359 47.9265 81.5288 48.6201C84.9805 49.5285 88.5973 49.0495 91.6857 47.2494C94.774 45.4492 96.9871 42.559 97.8954 39.0908C98.5395 36.6465 98.49 34.0867 97.7303 31.6755C97.4165 30.668 97.5486 29.5615 98.1101 28.6532L98.4735 28.0751L97.6312 28.0421C96.6238 28.0091 95.6659 27.5632 95.0053 26.8034C93.2546 24.8051 90.959 23.3848 88.3826 22.7077C83.4776 21.403 78.3248 22.9554 74.9392 26.7539C73.6015 28.2568 71.2893 28.3889 69.7864 27.0512C68.2835 25.7134 68.1514 23.4013 69.4892 21.8984C74.708 16.0355 82.6683 13.6408 90.2489 15.6556C93.7006 16.564 96.8219 18.3311 99.3653 20.8084L105.047 20.9901C106.351 21.0396 107.54 21.7663 108.151 22.9224C108.762 24.0784 108.729 25.4657 108.036 26.5722L105.162 31.1965C105.872 34.417 105.823 37.7696 104.964 40.9901C103.544 46.341 100.142 50.8167 95.3521 53.5912C92.1646 55.4244 88.6138 56.3823 84.997 56.3823Z" fill="#E70050"/>
</g>
<path id="Vector_4" d="M58.2919 22.0636C65.7898 22.0636 71.884 28.1577 71.884 35.6557C71.884 43.1536 65.7898 49.2477 58.2919 49.2477C50.794 49.2477 44.6998 43.1536 44.6998 35.6557C44.6998 28.1577 50.794 22.0636 58.2919 22.0636ZM58.2919 14.7473C46.7477 14.7473 37.3835 24.1115 37.3835 35.6557C37.3835 47.1998 46.7477 56.564 58.2919 56.564C69.8361 56.564 79.2002 47.1998 79.2002 35.6557C79.2002 24.1115 69.8361 14.7473 58.2919 14.7473Z" fill="#FF7E8D"/>
<g id="Group_4">
<path id="Vector_5" d="M13.6676 7.99254C13.7832 7.99254 13.8988 7.99254 14.0144 8.00905L30.4141 9.033C36.0954 9.39634 41.3472 11.6589 45.1788 15.4244C48.9277 19.0908 50.9921 23.9133 50.9921 29.0165C50.9921 34.1032 48.9277 38.9257 45.1788 42.6086C41.3472 46.374 36.0954 48.6366 30.4141 49L14.0144 50.0239C13.8988 50.0239 13.7832 50.0404 13.6676 50.0404C10.5793 50.0404 7.77167 47.3484 7.77167 44.3922V13.6738C7.77167 10.6845 10.5793 7.99254 13.6676 7.99254ZM13.6676 0.67627C6.51651 0.67627 0.471924 6.67132 0.471924 13.6408V44.3592C0.471924 51.3286 6.51651 57.3237 13.6676 57.3237C13.9319 57.3237 14.1961 57.3071 14.4769 57.2906L30.8765 56.2667C46.1036 55.3088 58.2919 43.7481 58.2919 29C58.2919 14.2518 46.1036 2.69113 30.8765 1.73325L14.4769 0.709301C14.1961 0.692786 13.9319 0.67627 13.6676 0.67627Z" fill="#E70050"/>
</g>
<g id="Group_5">
<path id="Vector_6" d="M17.4167 30.3377C19.0767 30.3377 20.4225 28.992 20.4225 27.332C20.4225 25.6719 19.0767 24.3262 17.4167 24.3262C15.7566 24.3262 14.4109 25.6719 14.4109 27.332C14.4109 28.992 15.7566 30.3377 17.4167 30.3377Z" fill="#E70050"/>
</g>
<g id="Group_6">
<path id="Vector_7" d="M29.0929 30.3377C30.753 30.3377 32.0987 28.992 32.0987 27.332C32.0987 25.6719 30.753 24.3262 29.0929 24.3262C27.4329 24.3262 26.0872 25.6719 26.0872 27.332C26.0872 28.992 27.4329 30.3377 29.0929 30.3377Z" fill="#E70050"/>
</g>
<g id="Group_7">
<g id="Group_8">
<path id="Vector_8" d="M190.034 54.1693H170.926C168.68 54.1693 166.632 52.8481 165.724 50.7837C164.815 48.7358 165.195 46.3246 166.698 44.6565L183.775 25.697H168.911C166.896 25.697 165.261 24.062 165.261 22.0471C165.261 20.0322 166.896 18.3972 168.911 18.3972H187.392C189.638 18.3972 191.686 19.7184 192.594 21.7828C193.502 23.8307 193.123 26.242 191.62 27.91L174.543 46.8696H190.034C192.049 46.8696 193.684 48.5046 193.684 50.5194C193.701 52.5343 192.066 54.1693 190.034 54.1693Z" fill="#E70050"/>
</g>
</g>
<path id="Vector_9" d="M123.345 28.9008C126.748 28.9008 129.506 26.1428 129.506 22.7406C129.506 19.3385 126.748 16.5804 123.345 16.5804C119.943 16.5804 117.185 19.3385 117.185 22.7406C117.185 26.1428 119.943 28.9008 123.345 28.9008Z" fill="#E70050"/>
<path id="Vector_10" d="M144.469 28.9008C147.871 28.9008 150.629 26.1428 150.629 22.7406C150.629 19.3385 147.871 16.5804 144.469 16.5804C141.066 16.5804 138.308 19.3385 138.308 22.7406C138.308 26.1428 141.066 28.9008 144.469 28.9008Z" fill="#E70050"/>
<g id="Group_9">
<path id="Vector_11" d="M158.886 55.2758C157.284 55.2758 155.831 54.2188 155.369 52.6168C153.123 44.6564 148.746 39.322 144.452 39.322C140.158 39.322 135.782 44.673 133.536 52.6168C132.991 54.5656 130.976 55.6886 129.027 55.1436C127.078 54.5986 125.955 52.5838 126.5 50.635C129.737 39.1403 136.607 32.0057 144.452 32.0057C152.28 32.0057 159.167 39.1403 162.404 50.635C162.949 52.5838 161.826 54.5986 159.877 55.1436C159.547 55.2262 159.217 55.2758 158.886 55.2758Z" fill="#FF7E8D"/>
</g>
<g id="Group_10">
<path id="Vector_12" d="M137.763 55.2758C136.161 55.2758 134.708 54.2188 134.246 52.6168C132 44.6564 127.623 39.322 123.329 39.322C119.035 39.322 114.659 44.673 112.412 52.6168C111.867 54.5656 109.853 55.6886 107.904 55.1436C105.955 54.5986 104.832 52.5838 105.377 50.635C108.614 39.1403 115.484 32.0057 123.329 32.0057C131.157 32.0057 138.044 39.1403 141.281 50.635C141.826 52.5838 140.703 54.5986 138.754 55.1436C138.424 55.2262 138.094 55.2758 137.763 55.2758Z" fill="#E70050"/>
</g>
</g>
</svg>
