<svg width="12" height="12" viewBox="0 0 12 12" fill="none" xmlns="http://www.w3.org/2000/svg">
<g id="Frame 1321317730">
<path id="Vector" d="M6.0025 0.75C8.89871 0.75 11.2547 2.655 11.2547 5C11.2547 7.345 8.89871 9.25 6.0025 9.25C5.95748 9.25 5.91747 9.25 5.87245 9.245H5.7574C5.7574 9.245 5.73739 9.24 5.72739 9.24C5.44227 9.24 5.18216 9.4 5.05711 9.655L4.25677 11.25L2.91121 8.56C2.85119 8.445 2.76615 8.345 2.65611 8.27C1.4406 7.455 0.745311 6.265 0.745311 5C0.750313 2.655 3.10629 0.75 6.0025 0.75ZM6.0025 0C2.68612 0 0 2.24 0 5C0 6.575 0.875365 7.98 2.24093 8.895L3.58649 11.585C3.72655 11.86 3.99166 12 4.25677 12C4.52188 12 4.792 11.86 4.92705 11.585L5.72739 9.99C5.81742 9.99 5.90746 10 5.9975 10C9.31388 10 12 7.76 12 5C12 2.24 9.31888 0 6.0025 0Z" fill="#727375"/>
<g id="Group">
<path id="Vector_2" d="M8.19699 5.5C8.47324 5.5 8.69719 5.27614 8.69719 5C8.69719 4.72386 8.47324 4.5 8.19699 4.5C7.92073 4.5 7.69678 4.72386 7.69678 5C7.69678 5.27614 7.92073 5.5 8.19699 5.5Z" fill="#9E9FA1"/>
<path id="Vector_3" d="M6.09933 5.56494C6.37559 5.56494 6.59954 5.34108 6.59954 5.06494C6.59954 4.7888 6.37559 4.56494 6.09933 4.56494C5.82307 4.56494 5.59912 4.7888 5.59912 5.06494C5.59912 5.34108 5.82307 5.56494 6.09933 5.56494Z" fill="#9E9FA1"/>
<path id="Vector_4" d="M4.00167 5.56494C4.27793 5.56494 4.50188 5.34108 4.50188 5.06494C4.50188 4.7888 4.27793 4.56494 4.00167 4.56494C3.72542 4.56494 3.50146 4.7888 3.50146 5.06494C3.50146 5.34108 3.72542 5.56494 4.00167 5.56494Z" fill="#9E9FA1"/>
</g>
</g>
</svg>
