<svg width="25" height="26" viewBox="0 0 25 26" fill="none" xmlns="http://www.w3.org/2000/svg">
<g id="Layer_1" clip-path="url(#clip0_1118_2111)">
<path id="Vector" d="M24.5 19.6996C24.5 22.666 22.1096 25.0708 19.16 25.0708H5.84C2.8904 25.0708 0.5 22.666 0.5 19.6996V6.30284C0.5 3.33644 2.8904 0.931641 5.84 0.931641H19.16C22.1096 0.931641 24.5 3.33644 24.5 6.30284V19.6996Z" fill="#F9E000"/>
<path id="Vector_2" d="M12.4255 5.47485C7.65912 5.47485 3.79272 8.53005 3.79272 12.2981C3.79272 14.7509 5.42952 16.9013 7.88713 18.1037C7.70712 18.7781 7.23432 20.5445 7.13832 20.9237C7.02072 21.3941 7.30872 21.3869 7.50072 21.2621C7.64952 21.1637 9.86712 19.6565 10.8223 19.0037C11.3407 19.0805 11.8783 19.1213 12.4255 19.1213C17.1919 19.1213 21.0583 16.0661 21.0583 12.2981C21.0583 8.53005 17.1943 5.47485 12.4255 5.47485Z" fill="#371C1D"/>
<path id="SVGID" d="M6.40154 11.0428H7.28955C7.28955 11.0428 7.29435 13.4836 7.28955 14.0524C7.28955 14.4676 8.21354 14.4724 8.21354 14.0596L8.21834 11.0764C8.21834 11.0764 8.51594 11.0764 9.10155 11.0788C9.65354 11.0788 9.65354 10.21 9.10155 10.21C8.47995 10.21 6.39914 10.1932 6.39914 10.1932C5.87834 10.1932 5.87834 11.0452 6.39914 11.0452" fill="#F9E000"/>
<g id="Clip path group">
<mask id="mask0_1118_2111" style="mask-type:luminance" maskUnits="userSpaceOnUse" x="6" y="10" width="4" height="5">
<g id="clippath-1">
<path id="SVGID-2" d="M6.40154 11.0428H7.28955C7.28955 11.0428 7.29435 13.4836 7.28955 14.0524C7.28955 14.4676 8.21354 14.4724 8.21354 14.0596L8.21834 11.0764C8.21834 11.0764 8.51594 11.0764 9.10155 11.0788C9.65354 11.0788 9.65354 10.21 9.10155 10.21C8.47995 10.21 6.39914 10.1932 6.39914 10.1932C5.87834 10.1932 5.87834 11.0452 6.39914 11.0452" fill="white"/>
</g>
</mask>
<g mask="url(#mask0_1118_2111)">
<g id="Group">
<path id="Vector_3" d="M9.65606 10.1908H5.88086V14.4724H9.65606V10.1908Z" fill="#F9E000"/>
</g>
</g>
</g>
<path id="SVGID-3" d="M10.6543 11.2013L11.1487 12.7493H10.1191L10.6543 11.2013ZM10.0999 10.4765C9.8815 10.9589 9.0919 13.2317 8.8303 13.8341C8.6407 14.2709 9.4591 14.6261 9.6487 14.1893L9.8263 13.5677H11.4511C11.4511 13.5677 11.3959 13.5941 11.6119 14.1629C11.7871 14.6237 12.6319 14.3045 12.4567 13.8437C12.2071 13.1837 11.3431 10.8125 11.1871 10.4765C11.1151 10.3205 10.8535 10.2101 10.6015 10.2101C10.3927 10.2101 10.1887 10.2869 10.1023 10.4765" fill="#F9E000"/>
<g id="Clip path group_2">
<mask id="mask1_1118_2111" style="mask-type:luminance" maskUnits="userSpaceOnUse" x="8" y="10" width="5" height="5">
<g id="clippath-4">
<path id="SVGID-4" d="M10.6543 11.2013L11.1487 12.7493H10.1191L10.6543 11.2013ZM10.0999 10.4765C9.8815 10.9589 9.0919 13.2317 8.8303 13.8341C8.6407 14.2709 9.4591 14.6261 9.6487 14.1893L9.8263 13.5677H11.4511C11.4511 13.5677 11.3959 13.5941 11.6119 14.1629C11.7871 14.6237 12.6319 14.3045 12.4567 13.8437C12.2071 13.1837 11.3431 10.8125 11.1871 10.4765C11.1151 10.3205 10.8535 10.2101 10.6015 10.2101C10.3927 10.2101 10.1887 10.2869 10.1023 10.4765" fill="white"/>
</g>
</mask>
<g mask="url(#mask1_1118_2111)">
<g id="Group_2">
<path id="Vector_4" d="M12.6294 10.2101H8.64062V14.6261H12.6294V10.2101Z" fill="#F9E000"/>
</g>
</g>
</g>
<path id="SVGID-5" d="M12.7664 10.6181C12.7664 11.3909 12.7712 13.8821 12.7712 13.8821C12.7712 13.8821 12.6992 14.3765 13.124 14.3765C13.5488 14.3765 14.4896 14.3717 14.9072 14.3717C15.3248 14.3717 15.3224 13.4837 14.9072 13.4837C14.492 13.4837 13.7264 13.4789 13.7264 13.4789C13.7264 13.4789 13.7312 11.1749 13.7288 10.6157C13.7288 10.3445 13.4888 10.2101 13.2488 10.2101C13.0088 10.2101 12.7664 10.3469 12.7664 10.6181Z" fill="#F9E000"/>
<g id="Clip path group_3">
<mask id="mask2_1118_2111" style="mask-type:luminance" maskUnits="userSpaceOnUse" x="12" y="10" width="4" height="5">
<g id="clippath-7">
<path id="SVGID-6" d="M12.7664 10.6181C12.7664 11.3909 12.7712 13.8821 12.7712 13.8821C12.7712 13.8821 12.6992 14.3765 13.124 14.3765C13.5488 14.3765 14.4896 14.3717 14.9072 14.3717C15.3248 14.3717 15.3224 13.4837 14.9072 13.4837C14.492 13.4837 13.7264 13.4789 13.7264 13.4789C13.7264 13.4789 13.7312 11.1749 13.7288 10.6157C13.7288 10.3445 13.4888 10.2101 13.2488 10.2101C13.0088 10.2101 12.7664 10.3469 12.7664 10.6181Z" fill="white"/>
</g>
</mask>
<g mask="url(#mask2_1118_2111)">
<g id="Group_3">
<path id="Vector_5" d="M15.3248 10.2101H12.6992V14.3765H15.3248V10.2101Z" fill="#F9E000"/>
</g>
</g>
</g>
<path id="SVGID-7" d="M15.4375 10.4956C15.4471 10.834 15.4255 13.8988 15.4279 14.1268C15.4279 14.4844 16.3399 14.4844 16.3399 14.1268C16.3399 13.7116 16.3399 12.922 16.3399 12.922L16.6087 12.7084L17.7799 14.3068C18.0175 14.6188 18.7615 14.0548 18.5263 13.7428L17.2831 12.1036C17.2831 12.1036 18.1279 11.1916 18.4591 10.8604C18.6535 10.6684 18.0511 10.0612 17.8591 10.2556C17.6719 10.4428 16.3495 11.7652 16.3495 11.7652C16.3495 11.7652 16.3615 10.9348 16.3495 10.474C16.3447 10.2988 16.1311 10.2148 15.9127 10.2148C15.6775 10.2148 15.4375 10.3108 15.4423 10.498" fill="#F9E000"/>
<g id="Clip path group_4">
<mask id="mask3_1118_2111" style="mask-type:luminance" maskUnits="userSpaceOnUse" x="15" y="10" width="4" height="5">
<g id="clippath-10">
<path id="SVGID-8" d="M15.4375 10.4956C15.4471 10.834 15.4255 13.8988 15.4279 14.1268C15.4279 14.4844 16.3399 14.4844 16.3399 14.1268C16.3399 13.7116 16.3399 12.922 16.3399 12.922L16.6087 12.7084L17.7799 14.3068C18.0175 14.6188 18.7615 14.0548 18.5263 13.7428L17.2831 12.1036C17.2831 12.1036 18.1279 11.1916 18.4591 10.8604C18.6535 10.6684 18.0511 10.0612 17.8591 10.2556C17.6719 10.4428 16.3495 11.7652 16.3495 11.7652C16.3495 11.7652 16.3615 10.9348 16.3495 10.474C16.3447 10.2988 16.1311 10.2148 15.9127 10.2148C15.6775 10.2148 15.4375 10.3108 15.4423 10.498" fill="white"/>
</g>
</mask>
<g mask="url(#mask3_1118_2111)">
<g id="Group_4">
<path id="Vector_6" d="M18.7591 10.0564H15.4255V14.614H18.7591V10.0564Z" fill="#F9E000"/>
</g>
</g>
</g>
</g>
<defs>
<clipPath id="clip0_1118_2111">
<rect width="24" height="24.1368" fill="white" transform="translate(0.5 0.931641)"/>
</clipPath>
</defs>
</svg>
