<svg width="40" height="32" viewBox="0 0 40 32" fill="none" xmlns="http://www.w3.org/2000/svg">
<g id="_&#235;&#160;&#136;&#236;&#157;&#180;&#236;&#150;&#180;_1" clip-path="url(#clip0_1586_5007)">
<g id="Group">
<path id="Vector" d="M28.2081 31.3361C21.7024 31.3361 16.4102 26.0438 16.4102 19.5382C16.4102 13.0325 21.7024 7.74023 28.2081 7.74023C34.7137 7.74023 40.006 13.0325 40.006 19.5382C40.006 21.6266 39.4611 23.6532 38.4228 25.4441L39.2115 28.8603C39.3515 29.4693 39.1566 30.1075 38.6993 30.5334C38.2419 30.9604 37.5921 31.1097 36.9935 30.9266L33.771 29.9407C32.0641 30.8554 30.1565 31.3361 28.2069 31.3361H28.2081ZM28.2081 11.2392C23.6322 11.2392 19.9103 14.9623 19.9103 19.537C19.9103 24.1117 23.6334 27.8347 28.2081 27.8347C29.7738 27.8347 31.2999 27.3949 32.6206 26.563C33.0512 26.2923 33.5785 26.2212 34.065 26.3705L35.1186 26.6925L34.8491 25.5258C34.7406 25.0544 34.8316 24.5586 35.1011 24.1572C36.0193 22.7898 36.5047 21.1926 36.5047 19.5382C36.5047 14.9623 32.7816 11.2404 28.2069 11.2404L28.2081 11.2392Z" fill="#FFA2B8"/>
<path id="Vector_2" d="M6.22689 4.16412C6.28056 4.16412 6.33306 4.16528 6.38673 4.16878L14.114 4.65414C16.7788 4.82098 19.2359 5.88387 21.035 7.64679C22.7874 9.36538 23.7534 11.6242 23.7534 14.0066C23.7534 16.3891 22.7886 18.649 21.035 20.3664C19.237 22.1293 16.7788 23.1922 14.114 23.3591L6.38673 23.8444C6.33306 23.8479 6.27939 23.8491 6.22572 23.8491C4.80232 23.8491 3.50609 22.6077 3.50609 21.2438V6.76941C3.50609 5.40551 4.80232 4.16412 6.22572 4.16412M6.22689 0.66394C2.85389 0.66394 0.00708008 3.48742 0.00708008 6.76941V21.245C0.00708008 24.527 2.85272 27.3504 6.22689 27.3504C6.3529 27.3504 6.4789 27.3469 6.60608 27.3388L14.3333 26.8534C21.511 26.4031 27.2536 20.9556 27.2536 14.0078C27.2536 7.05993 21.511 1.61132 14.3333 1.16097L6.60608 0.675608C6.4789 0.667441 6.3529 0.66394 6.22689 0.66394Z" fill="#E70050"/>
<g id="Clip path group">
<mask id="mask0_1586_5007" style="mask-type:luminance" maskUnits="userSpaceOnUse" x="12" y="17" width="17" height="11">
<g id="clippath">
<path id="Vector_3" d="M28.1264 24.4837C25.7918 27.1613 22.2146 28.2581 18.7237 27.7295C14.9972 27.166 10.2206 26.4998 12.9403 22.0908C15.5117 17.9244 26.3203 14.0474 28.1264 24.4825C25.7918 27.1602 26.3215 14.0474 28.1264 24.4825V24.4837Z" fill="white"/>
</g>
</mask>
<g mask="url(#mask0_1586_5007)">
<g id="Group_2">
<path id="Vector_4" d="M6.22689 4.16399C6.28056 4.16399 6.33306 4.16516 6.38673 4.16866L14.114 4.65402C16.7788 4.82086 19.2359 5.88375 21.035 7.64667C22.7874 9.36525 23.7534 11.624 23.7534 14.0065C23.7534 16.3889 22.7886 18.6489 21.035 20.3663C19.237 22.1292 16.7788 23.1921 14.114 23.359L6.38673 23.8443C6.33306 23.8478 6.27939 23.849 6.22572 23.849C4.80232 23.849 3.50609 22.6076 3.50609 21.2437V6.76929C3.50609 5.40539 4.80232 4.16399 6.22572 4.16399M6.22689 0.663818C2.85389 0.663818 0.00708008 3.48729 0.00708008 6.76929V21.2448C0.00708008 24.5268 2.85272 27.3503 6.22689 27.3503C6.3529 27.3503 6.4789 27.3468 6.60608 27.3387L14.3333 26.8533C21.511 26.4029 27.2536 20.9555 27.2536 14.0077C27.2536 7.05981 21.511 1.6112 14.3333 1.16084L6.60608 0.675486C6.4789 0.667319 6.3529 0.663818 6.22689 0.663818Z" fill="#E70050"/>
<path id="Vector_5" d="M28.2081 31.3358C21.7024 31.3358 16.4102 26.0436 16.4102 19.5379C16.4102 13.0323 21.7024 7.73999 28.2081 7.73999C34.7137 7.73999 40.006 13.0323 40.006 19.5379C40.006 21.6264 39.4611 23.653 38.4228 25.4439L39.2115 28.86C39.3515 29.4691 39.1566 30.1073 38.6993 30.5331C38.2419 30.9602 37.5921 31.1095 36.9935 30.9263L33.771 29.9404C32.0641 30.8551 30.1565 31.3358 28.2069 31.3358H28.2081ZM28.2081 11.239C23.6322 11.239 19.9103 14.962 19.9103 19.5367C19.9103 24.1115 23.6334 27.8345 28.2081 27.8345C29.7738 27.8345 31.2999 27.3946 32.6206 26.5628C33.0512 26.2921 33.5785 26.2209 34.065 26.3703L35.1186 26.6923L34.8491 25.5255C34.7406 25.0542 34.8316 24.5583 35.1011 24.157C36.0193 22.7896 36.5047 21.1923 36.5047 19.5379C36.5047 14.962 32.7816 11.2402 28.2069 11.2402L28.2081 11.239Z" fill="#FFA2B8"/>
</g>
</g>
</g>
</g>
<path id="Vector_6" d="M7.41104 14.2515C8.2165 14.2515 8.86945 13.5986 8.86945 12.7931C8.86945 11.9877 8.2165 11.3347 7.41104 11.3347C6.60559 11.3347 5.95264 11.9877 5.95264 12.7931C5.95264 13.5986 6.60559 14.2515 7.41104 14.2515Z" fill="#E70050"/>
<path id="Vector_7" d="M13.079 14.2515C13.8845 14.2515 14.5374 13.5986 14.5374 12.7931C14.5374 11.9877 13.8845 11.3347 13.079 11.3347C12.2736 11.3347 11.6206 11.9877 11.6206 12.7931C11.6206 13.5986 12.2736 14.2515 13.079 14.2515Z" fill="#E70050"/>
</g>
<defs>
<clipPath id="clip0_1586_5007">
<rect width="40" height="30.672" fill="white" transform="translate(0.00708008 0.66394)"/>
</clipPath>
</defs>
</svg>
