<?xml version="1.0" encoding="UTF-8"?>
<svg id="_레이어_2" data-name="레이어 2" xmlns="http://www.w3.org/2000/svg" viewBox="0 0 24 23.79">
  <defs>
    <style>
      .cls-1, .cls-2 {
        stroke-width: 0px;
      }

      .cls-2 {
        fill: #e70050;
      }
    </style>
  </defs>
  <g id="_레이어_1-2" data-name="레이어 1">
    <path class="cls-1" d="M12,1.5c.58,0,1.15.21,1.6.58l8,6.67c.57.48.9,1.18.9,1.92v9.13c0,1.38-1.12,2.5-2.5,2.5H4c-1.38,0-2.5-1.12-2.5-2.5v-9.13c0-.74.33-1.44.9-1.92l8-6.67c.45-.37,1.02-.58,1.6-.58M12,0c-.91,0-1.82.31-2.56.93L1.44,7.59c-.91.76-1.44,1.89-1.44,3.07v9.13c0,2.21,1.79,4,4,4h16c2.21,0,4-1.79,4-4v-9.13c0-1.19-.53-2.31-1.44-3.07L14.56.93c-.74-.62-1.65-.93-2.56-.93h0Z"/>
    <circle class="cls-2" cx="16.68" cy="12.16" r=".75"/>
    <path class="cls-1" d="M14.5,15.29v7h-5v-7h5M15,13.79h-6c-.55,0-1,.45-1,1v8c0,.55.45,1,1,1h6c.55,0,1-.45,1-1v-8c0-.55-.45-1-1-1h0Z"/>
  </g>
</svg>