<svg width="24" height="24" viewBox="0 0 24 24" fill="none" xmlns="http://www.w3.org/2000/svg">
<g id="_&#235;&#160;&#136;&#236;&#157;&#180;&#236;&#150;&#180;_2" clip-path="url(#clip0_1925_8630)">
<path id="Vector" d="M12 24C18.6274 24 24 18.6274 24 12C24 5.37258 18.6274 0 12 0C5.37258 0 0 5.37258 0 12C0 18.6274 5.37258 24 12 24Z" fill="#E2E2E2"/>
<path id="Vector_2" d="M12 4.37988C13.3 4.37988 14.36 5.43988 14.36 6.73988C14.36 8.03988 13.3 9.09988 12 9.09988C10.7 9.09988 9.64001 8.03988 9.64001 6.73988C9.64001 5.43988 10.7 4.37988 12 4.37988ZM12 2.87988C9.87001 2.87988 8.14001 4.60988 8.14001 6.73988C8.14001 8.86988 9.87001 10.5999 12 10.5999C14.13 10.5999 15.86 8.86988 15.86 6.73988C15.86 4.60988 14.13 2.87988 12 2.87988Z" fill="black"/>
<path id="Vector_3" d="M19.57 17.57C19.33 17.57 19.09 17.45 18.94 17.23C17.39 14.89 14.8 13.5 12 13.5C9.2 13.5 6.61 14.9 5.06 17.23C4.83 17.58 4.37 17.67 4.02 17.44C3.67 17.21 3.58 16.75 3.81 16.4C5.64 13.64 8.7 11.99 12 11.99C15.3 11.99 18.37 13.64 20.19 16.4C20.42 16.75 20.32 17.21 19.98 17.44C19.85 17.52 19.71 17.56 19.57 17.56V17.57Z" fill="black"/>
<path id="Vector_4" d="M15.56 16.9299C15.13 16.9299 14.78 17.2799 14.78 17.7099C14.78 18.1399 15.13 18.4899 15.56 18.4899C15.99 18.4899 16.34 18.1399 16.34 17.7099C16.34 17.2799 15.99 16.9299 15.56 16.9299Z" fill="#E70050"/>
</g>
<defs>
<clipPath id="clip0_1925_8630">
<rect width="24" height="24" fill="white"/>
</clipPath>
</defs>
</svg>
