<svg width="27" height="26" viewBox="0 0 27 26" fill="none" xmlns="http://www.w3.org/2000/svg">
<g id="_&#235;&#160;&#136;&#236;&#157;&#180;&#236;&#150;&#180;_1" clip-path="url(#clip0_2311_2778)">
<g id="Group 973">
<path id="Vector" d="M10.4965 24.3444C11.1288 24.3444 11.6413 23.8319 11.6413 23.1997C11.6413 22.5674 11.1288 22.0549 10.4965 22.0549C9.86432 22.0549 9.35181 22.5674 9.35181 23.1997C9.35181 23.8319 9.86432 24.3444 10.4965 24.3444Z" fill="#BEBEBE"/>
<path id="Vector_2" d="M17.0444 3.94522C17.6766 3.94522 18.1891 3.43271 18.1891 2.80049C18.1891 2.16827 17.6766 1.65576 17.0444 1.65576C16.4122 1.65576 15.8997 2.16827 15.8997 2.80049C15.8997 3.43271 16.4122 3.94522 17.0444 3.94522Z" fill="#BEBEBE"/>
<g id="Group">
<path id="Vector_3" d="M3.30737 12.897C3.30737 7.32222 7.92063 2.80054 13.6099 2.80054" stroke="#9E9FA1" stroke-width="1.625" stroke-linecap="round" stroke-linejoin="round"/>
<path id="Vector_4" d="M1.59033 12.897L3.30743 14.1676L5.02452 12.897" stroke="#9E9FA1" stroke-width="1.625" stroke-linecap="round" stroke-linejoin="round"/>
</g>
<path id="Vector_5" d="M13.6099 23.1995C19.1847 23.1995 23.7064 18.5863 23.7064 12.897" stroke="#9E9FA1" stroke-width="1.625" stroke-linecap="round" stroke-linejoin="round"/>
<path id="Vector_6" d="M21.9897 12.8971L23.7068 11.6265L25.4239 12.8971" stroke="#9E9FA1" stroke-width="1.625" stroke-linecap="round" stroke-linejoin="round"/>
<g id="Group_2">
<path id="Vector_7" d="M13.61 11.9583C14.8744 11.9583 15.8995 10.9333 15.8995 9.66885C15.8995 8.40442 14.8744 7.37939 13.61 7.37939C12.3456 7.37939 11.3206 8.40442 11.3206 9.66885C11.3206 10.9333 12.3456 11.9583 13.61 11.9583Z" fill="#9E9FA1"/>
<path id="Vector_8" d="M13.6101 14.0875C15.3616 14.0875 16.907 15.1292 17.5823 16.6974H9.64938C10.3248 15.1292 11.8701 14.0875 13.6216 14.0875M13.6101 12.3704C10.7712 12.3704 8.39017 14.3278 7.73768 16.9722C7.56597 17.6934 8.10399 18.4031 8.84807 18.4031H18.3493C19.0934 18.4031 19.6429 17.6934 19.4597 16.9722C18.8187 14.3278 16.4376 12.3704 13.5872 12.3704H13.6101Z" fill="#9E9FA1"/>
</g>
</g>
</g>
<defs>
<clipPath id="clip0_2311_2778">
<rect width="26" height="26" fill="white" transform="translate(0.50708)"/>
</clipPath>
</defs>
</svg>
