<?xml version="1.0" encoding="utf-8"?>
<!-- Generator: Adobe Illustrator 27.4.0, SVG Export Plug-In . SVG Version: 6.00 Build 0)  -->
<svg version="1.1" id="레이어_1" xmlns="http://www.w3.org/2000/svg" xmlns:xlink="http://www.w3.org/1999/xlink" x="0px"
	 y="0px" viewBox="0 0 24 24" style="enable-background:new 0 0 24 24;" xml:space="preserve">
<style type="text/css">
	.st0{fill:#E70050;}
</style>
<g>
	<path d="M17.4,24H4.5c-1.1,0-2.2-0.6-2.8-1.5c-0.6-0.9-0.7-2.1-0.3-3.1c1.8-4,6-6.7,10.8-6.7c4.5,0,8.6,2.4,10.5,6
		c0.2,0.4,0.1,0.8-0.3,1c-0.4,0.2-0.8,0.1-1-0.3c-1.7-3.2-5.3-5.2-9.2-5.2c-4.2,0-7.9,2.3-9.4,5.8c-0.2,0.6-0.2,1.2,0.1,1.7
		c0.4,0.5,0.9,0.9,1.6,0.9h12.9c0.4,0,0.8,0.3,0.8,0.8S17.8,24,17.4,24z"/>
</g>
<g>
	<path d="M12.2,1.5c2.3,0,4.2,1.9,4.2,4.2c0,2.3-1.9,4.2-4.2,4.2C9.9,9.9,8,8,8,5.7C8,3.4,9.9,1.5,12.2,1.5 M12.2,0
		C9.1,0,6.5,2.6,6.5,5.7s2.6,5.7,5.7,5.7s5.7-2.6,5.7-5.7S15.4,0,12.2,0L12.2,0z"/>
</g>
<circle class="st0" cx="21.4" cy="23.2" r="0.8"/>
</svg>
