<svg width="12" height="12" viewBox="0 0 12 12" fill="none" xmlns="http://www.w3.org/2000/svg">
<path d="M0.545439 11.0909C0.247258 10.7927 0.247257 10.2982 0.545439 9.99997L9.99996 0.545453C10.2981 0.247272 10.7927 0.247272 11.0909 0.545453C11.389 0.843634 11.389 1.33818 11.0909 1.63636L1.63634 11.0909C1.33816 11.3891 0.84362 11.3891 0.545439 11.0909Z" fill="#727375"/>
<path d="M7.81807 8.90907L0.545367 1.63636C0.247186 1.33818 0.247186 0.843634 0.545367 0.545453C0.843548 0.247272 1.33809 0.247272 1.63627 0.545453L8.90898 7.81816C9.20716 8.11634 9.20716 8.61089 8.90898 8.90907C8.6108 9.20725 8.11626 9.20725 7.81807 8.90907Z" fill="#727375"/>
<path d="M9.81814 11.2726C10.2198 11.6743 10.871 11.6743 11.2727 11.2726C11.6743 10.871 11.6743 10.2198 11.2727 9.81809C10.871 9.41643 10.2198 9.41643 9.81814 9.81809C9.41648 10.2198 9.41648 10.871 9.81814 11.2726Z" fill="#727375"/>
</svg>
