<svg width="15" height="14" viewBox="0 0 15 14" fill="none" xmlns="http://www.w3.org/2000/svg">
<g id="_&#235;&#160;&#136;&#236;&#157;&#180;&#236;&#150;&#180;_1" clip-path="url(#clip0_2489_3144)">
<path id="Vector" d="M9.13183 12.5539C9.01024 12.3171 8.71587 12.2275 8.48549 12.3555L8.32551 12.4387C7.80717 12.701 7.18643 12.701 6.67449 12.4387C5.82338 12.0035 5.05546 11.5044 4.37713 10.954C1.68302 8.75267 1.11348 6.18654 0.991894 5.17545C0.985495 5.10506 0.979096 5.04106 0.972696 4.96427C0.959898 4.82989 0.959898 4.7467 0.959898 4.7339C0.959898 2.94209 2.37415 1.36786 3.98677 1.36786C5.49701 1.36786 6.85367 2.08458 7.532 3.23646C7.66638 3.46683 7.96075 3.54362 8.19113 3.40924C8.4215 3.27485 8.49829 2.98048 8.36391 2.75011C7.5128 1.30386 5.83618 0.407959 3.99317 0.407959C1.8302 0.407959 0 2.39175 0 4.7339C0 4.7339 0 4.84909 0.0127986 5.04106C0.0127986 5.13066 0.0255973 5.21385 0.0383959 5.29704C0.172782 6.41692 0.806314 9.27101 3.7692 11.6964C4.49232 12.2915 5.32423 12.829 6.23293 13.2898C6.62969 13.4882 7.06485 13.5906 7.4936 13.5906C7.92236 13.5906 8.35751 13.4882 8.75427 13.2898L8.92705 13.2002C9.16382 13.0786 9.25341 12.7842 9.12543 12.5539H9.13183Z" fill="#727375"/>
<path id="Vector_2" d="M10.322 12.2856C10.5976 12.2856 10.8211 12.0622 10.8211 11.7865C10.8211 11.5108 10.5976 11.2874 10.322 11.2874C10.0463 11.2874 9.82281 11.5108 9.82281 11.7865C9.82281 12.0622 10.0463 12.2856 10.322 12.2856Z" fill="#727375"/>
<path id="Vector_3" d="M11.6658 11.1411C11.5442 11.1411 11.4162 11.0899 11.3202 10.9939C11.1347 10.802 11.1411 10.5012 11.3266 10.3156C13.4256 8.26144 13.8928 6.04088 13.9951 5.17697C14.0015 5.10658 14.0143 5.03618 14.0143 4.96579C14.0271 4.82501 14.0271 4.74181 14.0271 4.73541C14.0271 2.93721 12.6129 1.36297 11.0003 1.36297C9.49003 1.36297 8.13337 2.0797 7.45504 3.23157C7.32066 3.46195 7.02629 3.53874 6.79591 3.40436C6.56554 3.26997 6.48875 2.9756 6.62313 2.74523C7.47424 1.29898 9.15086 0.403076 10.9939 0.403076C13.1568 0.403076 14.9806 2.38687 14.9806 4.73541C14.9806 4.73541 14.9806 4.8506 14.9678 5.04258C14.9678 5.12577 14.955 5.21536 14.9422 5.29855C14.8271 6.25205 14.3087 8.73499 11.9922 11.0003C11.8962 11.0899 11.7746 11.1347 11.6594 11.1347L11.6658 11.1411Z" fill="#727375"/>
</g>
<defs>
<clipPath id="clip0_2489_3144">
<rect width="15" height="13.1826" fill="white" transform="translate(0 0.407959)"/>
</clipPath>
</defs>
</svg>
