<svg width="25" height="24" viewBox="0 0 25 24" fill="none" xmlns="http://www.w3.org/2000/svg">
<g id="_&#235;&#160;&#136;&#236;&#157;&#180;&#236;&#150;&#180;_1" clip-path="url(#clip0_2311_2770)">
<path id="Vector" d="M20.5071 2.91748C21.8871 2.91748 23.0071 4.13847 23.0071 5.64291V14.3643C23.0071 15.8687 21.8871 17.0897 20.5071 17.0897H16.3771C15.8971 17.0897 15.4471 17.3404 15.1671 17.7547L12.5071 20.7011L9.84708 17.7547C9.56708 17.3295 9.11708 17.0897 8.63708 17.0897H4.50708C3.12708 17.0897 2.00708 15.8687 2.00708 14.3643V5.64291C2.00708 4.13847 3.12708 2.91748 4.50708 2.91748H20.5071ZM20.5071 1.28223H4.50708C2.29708 1.28223 0.50708 3.23363 0.50708 5.64291V14.3643C0.50708 16.7736 2.29708 18.725 4.50708 18.725H8.63708L11.6971 22.271C11.8971 22.5653 12.1971 22.7179 12.5071 22.7179C12.8171 22.7179 13.1171 22.5653 13.3171 22.271L16.3771 18.725H20.5071C22.7171 18.725 24.5071 16.7736 24.5071 14.3643V5.64291C24.5071 3.23363 22.7171 1.28223 20.5071 1.28223Z" fill="#9E9FA1"/>
<path id="Vector_2" d="M7.25708 10.5C7.80936 10.5 8.25708 10.0523 8.25708 9.5C8.25708 8.94772 7.80936 8.5 7.25708 8.5C6.7048 8.5 6.25708 8.94772 6.25708 9.5C6.25708 10.0523 6.7048 10.5 7.25708 10.5Z" fill="#BEBEBE"/>
<path id="Vector_3" d="M12.5071 10.5C13.0594 10.5 13.5071 10.0523 13.5071 9.5C13.5071 8.94772 13.0594 8.5 12.5071 8.5C11.9548 8.5 11.5071 8.94772 11.5071 9.5C11.5071 10.0523 11.9548 10.5 12.5071 10.5Z" fill="#BEBEBE"/>
<path id="Vector_4" d="M17.7571 10.5C18.3094 10.5 18.7571 10.0523 18.7571 9.5C18.7571 8.94772 18.3094 8.5 17.7571 8.5C17.2048 8.5 16.7571 8.94772 16.7571 9.5C16.7571 10.0523 17.2048 10.5 17.7571 10.5Z" fill="#BEBEBE"/>
</g>
<defs>
<clipPath id="clip0_2311_2770">
<rect width="24" height="24" fill="white" transform="translate(0.50708)"/>
</clipPath>
</defs>
</svg>
