<svg width="20" height="24" viewBox="0 0 20 24" fill="none" xmlns="http://www.w3.org/2000/svg">
<path id="Union" fill-rule="evenodd" clip-rule="evenodd" d="M10.7858 0.778669C10.7858 0.348622 10.4372 0 10.0072 0C9.5771 0 9.22848 0.348622 9.22848 0.778669V1.28285C5.06049 1.67505 1.79906 5.18387 1.79906 9.45445V19.2735H1.13049C0.732999 19.2735 0.410767 19.5957 0.410767 19.9932C0.410767 20.3907 0.732999 20.713 1.13049 20.713H1.79906V20.7131H2.99906H17.0152H18.2152V20.713H18.8837C19.2812 20.713 19.6035 20.3907 19.6035 19.9932C19.6035 19.5957 19.2812 19.2735 18.8837 19.2735H18.2152V9.45446C18.2152 5.1839 14.9538 1.67509 10.7858 1.28286V0.778669ZM9.75798 2.45075C9.83621 2.47715 9.92001 2.49146 10.0071 2.49146C10.0943 2.49146 10.1781 2.47715 10.2563 2.45075C14.0113 2.58198 17.0152 5.66743 17.0152 9.45446V19.2735H2.99906V9.45445C2.99906 5.6674 6.00292 2.58194 9.75798 2.45075ZM7.12821 22.5605C6.73071 22.5605 6.40848 22.8828 6.40848 23.2803C6.40848 23.6778 6.73071 24 7.12821 24H12.886C13.2835 24 13.6057 23.6778 13.6057 23.2803C13.6057 22.8828 13.2835 22.5605 12.886 22.5605H7.12821ZM4.92809 17.4279C4.92809 17.0148 5.26294 16.68 5.67601 16.68H7.93827C8.35134 16.68 8.68619 17.0148 8.68619 17.4279C8.68619 17.841 8.35134 18.1758 7.93827 18.1758H5.67601C5.26295 18.1758 4.92809 17.841 4.92809 17.4279Z" fill="#191919"/>
</svg>
