<svg width="20" height="20" viewBox="0 0 20 20" fill="none" xmlns="http://www.w3.org/2000/svg">
<path id="Union" fill-rule="evenodd" clip-rule="evenodd" d="M7.24152 0.345087L0.184965 9.60334C0.142918 9.6561 0.108181 9.71316 0.0809135 9.77304C-0.0219669 9.99795 -0.0155869 10.2553 0.0902023 10.4722C0.119045 10.5313 0.155279 10.5874 0.198704 10.639L5.65608 17.4178C5.93946 17.7698 6.45451 17.8254 6.8065 17.542C7.15849 17.2587 7.21411 16.7436 6.93074 16.3916L2.53454 10.931L19.1791 10.931C19.631 10.931 19.9973 10.5647 19.9973 10.1128C19.9973 9.66092 19.631 9.2946 19.1791 9.2946L2.47782 9.29459L8.54298 1.33705C8.8169 0.97766 8.74761 0.46426 8.38823 0.190337C8.02884 -0.0835851 7.51544 -0.0143012 7.24152 0.345087ZM7.9102 19.9771C8.39806 19.9771 8.79355 19.562 8.79355 19.0499C8.79355 18.5378 8.39806 18.1227 7.9102 18.1227C7.42234 18.1227 7.02685 18.5378 7.02685 19.0499C7.02685 19.562 7.42234 19.9771 7.9102 19.9771Z" fill="#191919"/>
</svg>
