<svg width="29" height="24" viewBox="0 0 29 24" fill="none" xmlns="http://www.w3.org/2000/svg">
<g id="_&#235;&#160;&#136;&#236;&#157;&#180;&#236;&#150;&#180;_1" clip-path="url(#clip0_1586_6573)">
<g id="Group 974">
<path id="Vector" d="M14.5 9.76904C16.4134 9.76904 17.965 11.3207 17.965 13.234C17.965 15.1474 16.4134 16.699 14.5 16.699C12.5867 16.699 11.035 15.1474 11.035 13.234C11.035 11.3207 12.5867 9.76904 14.5 9.76904ZM14.5 8.01904C11.6184 8.01904 9.28503 10.3524 9.28503 13.234C9.28503 16.1157 11.6184 18.449 14.5 18.449C17.3817 18.449 19.715 16.1157 19.715 13.234C19.715 10.3524 17.3817 8.01904 14.5 8.01904Z" fill="#9E9FA1"/>
<path id="Vector_2" d="M23.8333 4.61255C25.4433 4.61255 26.75 5.91922 26.75 7.52922V18.4259C26.75 20.0359 25.4433 21.3425 23.8333 21.3425H5.16667C3.55667 21.3425 2.25 20.0359 2.25 18.4259V7.52922C2.25 5.91922 3.55667 4.61255 5.16667 4.61255H23.8333ZM23.8333 2.86255H5.16667C2.58833 2.86255 0.5 4.95088 0.5 7.52922V18.4259C0.5 21.0042 2.58833 23.0925 5.16667 23.0925H23.8333C26.4117 23.0925 28.5 21.0042 28.5 18.4259V7.52922C28.5 4.95088 26.4117 2.86255 23.8333 2.86255Z" fill="#9E9FA1"/>
<path id="Vector_3" d="M21.5116 8.27585C22.027 8.27585 22.4449 7.85798 22.4449 7.34251C22.4449 6.82705 22.027 6.40918 21.5116 6.40918C20.9961 6.40918 20.5782 6.82705 20.5782 7.34251C20.5782 7.85798 20.9961 8.27585 21.5116 8.27585Z" fill="#9E9FA1"/>
<path id="Vector_4" d="M10.6382 0.377441H5.34155C4.86322 0.377441 4.46655 0.774108 4.46655 1.25244C4.46655 1.73077 4.86322 2.12744 5.34155 2.12744H10.6382C11.1166 2.12744 11.5132 1.73077 11.5132 1.25244C11.5132 0.774108 11.1166 0.377441 10.6382 0.377441Z" fill="#9E9FA1"/>
</g>
</g>
<defs>
<clipPath id="clip0_1586_6573">
<rect width="28" height="24" fill="white" transform="translate(0.5)"/>
</clipPath>
</defs>
</svg>
