<svg width="20" height="24" viewBox="0 0 20 24" fill="none" xmlns="http://www.w3.org/2000/svg">
<path id="Union" fill-rule="evenodd" clip-rule="evenodd" d="M10.7857 0.778669C10.7857 0.348622 10.437 0 10.007 0C9.57694 0 9.22832 0.348622 9.22832 0.778669V1.28285C5.06035 1.67507 1.79893 5.18389 1.79893 9.45445V19.2735H1.13037C0.732877 19.2735 0.410645 19.5957 0.410645 19.9932C0.410645 20.3907 0.732877 20.713 1.13037 20.713H1.79893V20.7131H3.19893H16.8151H18.2151V20.713H18.8836C19.2811 20.713 19.6033 20.3907 19.6033 19.9932C19.6033 19.5957 19.2811 19.2735 18.8836 19.2735H18.2151V9.45446C18.2151 5.18389 14.9536 1.67507 10.7857 1.28285V0.778669ZM16.8151 9.45446V19.2735H3.19893V9.45445C3.19893 5.69447 6.247 2.6464 10.007 2.6464C13.767 2.6464 16.8151 5.69447 16.8151 9.45446ZM7.12809 22.5605C6.73059 22.5605 6.40836 22.8828 6.40836 23.2803C6.40836 23.6778 6.73059 24 7.12809 24H12.8859C13.2834 24 13.6056 23.6778 13.6056 23.2803C13.6056 22.8828 13.2834 22.5605 12.8859 22.5605H7.12809ZM4.928 17.4279C4.928 17.0148 5.26286 16.68 5.67592 16.68H7.93819C8.35125 16.68 8.68611 17.0148 8.68611 17.4279C8.68611 17.841 8.35125 18.1758 7.93819 18.1758H5.67592C5.26286 18.1758 4.928 17.841 4.928 17.4279Z" fill="#191919"/>
</svg>
